<?xml version="1.0" encoding="utf-8"?>
<!-- Generator: Adobe Illustrator 25.2.3, SVG Export Plug-In . SVG Version: 6.00 Build 0)  -->
<svg version="1.1" id="Layer_1" xmlns="http://www.w3.org/2000/svg" xmlns:xlink="http://www.w3.org/1999/xlink" x="0px" y="0px"
	 viewBox="0 0 149.479 41.7" style="enable-background:new 0 0 149.479 41.7;" xml:space="preserve">
<style type="text/css">
	.st0{fill:#FFFFFF;}
</style>
<g>
	<g>
		<path class="st0" d="M103.165,26.236c-0.225-0.177-0.402-0.434-0.516-0.751l0,0l-2.943-8.257l-0.001-0.002
			c-0.024-0.071-0.048-0.151-0.065-0.229c-0.019-0.084-0.031-0.168-0.031-0.244c0-0.353,0.146-0.662,0.38-0.884
			c0.238-0.226,0.568-0.362,0.926-0.362c0.292,0,0.557,0.092,0.77,0.249c0.221,0.162,0.386,0.393,0.47,0.661l0,0l1.974,6.092
			l1.987-6.033l0,0c0.1-0.301,0.267-0.557,0.494-0.733c0.214-0.168,0.48-0.265,0.791-0.265h0.18c0.313,0,0.581,0.095,0.796,0.264
			c0.223,0.175,0.389,0.428,0.488,0.734l0,0l1.987,6.033l1.974-6.093v-0.001c0.087-0.26,0.247-0.498,0.472-0.665
			c0.202-0.15,0.456-0.243,0.752-0.243c0.349,0,0.666,0.135,0.894,0.357c0.227,0.221,0.366,0.527,0.366,0.874
			c0,0.069-0.01,0.147-0.026,0.225l0,0c-0.018,0.092-0.045,0.185-0.071,0.262v0.002l-2.943,8.257h-0.001
			c-0.114,0.317-0.291,0.574-0.516,0.751c-0.224,0.176-0.495,0.274-0.797,0.274h-0.24c-0.304,0-0.572-0.095-0.793-0.271
			c-0.22-0.175-0.392-0.431-0.505-0.755l0,0l-1.959-5.691l-1.958,5.691H105.5c-0.113,0.324-0.285,0.58-0.505,0.755
			c-0.222,0.177-0.489,0.271-0.793,0.271h-0.24C103.66,26.51,103.389,26.413,103.165,26.236 M116.756,26.086
			c-0.214-0.217-0.344-0.518-0.344-0.851c0-0.094,0.017-0.188,0.045-0.281c0.026-0.09,0.062-0.177,0.101-0.263l3.663-8.271l0,0
			c0.139-0.311,0.338-0.56,0.589-0.73c0.244-0.166,0.537-0.257,0.871-0.257h0.135c0.333,0,0.621,0.09,0.861,0.255
			c0.249,0.171,0.445,0.421,0.584,0.732l0,0l3.663,8.272l0,0c0.04,0.089,0.073,0.174,0.095,0.255
			c0.023,0.087,0.036,0.172,0.036,0.258c0,0.341-0.134,0.649-0.354,0.872c-0.219,0.222-0.522,0.358-0.862,0.358
			c-0.286,0-0.527-0.081-0.727-0.224c-0.213-0.152-0.376-0.375-0.493-0.644l-0.001-0.001l-0.675-1.578h-4.466l-0.705,1.654h-0.001
			c-0.107,0.248-0.269,0.447-0.471,0.583c-0.201,0.136-0.441,0.21-0.704,0.21C117.265,26.435,116.969,26.302,116.756,26.086z
			 M121.711,18.668l-1.276,3.039h2.552L121.711,18.668z M133.136,26.51h-0.15c-0.341,0-0.632-0.094-0.87-0.267
			c-0.235-0.17-0.418-0.417-0.546-0.722h-0.001l-3.408-8.152c-0.039-0.094-0.075-0.189-0.101-0.288
			c-0.027-0.102-0.044-0.206-0.044-0.314c0-0.355,0.14-0.669,0.37-0.896c0.23-0.227,0.55-0.365,0.906-0.365
			c0.311,0,0.572,0.086,0.782,0.231c0.231,0.16,0.398,0.391,0.501,0.656l2.516,6.513l2.546-6.588v-0.001
			c0.089-0.222,0.258-0.439,0.489-0.592c0.201-0.133,0.45-0.219,0.733-0.219c0.349,0,0.666,0.135,0.894,0.357
			c0.227,0.221,0.366,0.527,0.366,0.874c0,0.091-0.014,0.184-0.034,0.274c-0.025,0.103-0.06,0.202-0.095,0.282l0,0l-3.438,8.227l0,0
			c-0.129,0.305-0.311,0.552-0.546,0.722C133.767,26.416,133.477,26.51,133.136,26.51z M148.324,26.345h-5.9
			c-0.356,0-0.675-0.141-0.905-0.371s-0.371-0.549-0.371-0.905v-8.197c0-0.356,0.141-0.675,0.371-0.905
			c0.23-0.23,0.549-0.371,0.905-0.371h5.825c0.318,0,0.607,0.13,0.817,0.339c0.209,0.209,0.339,0.498,0.339,0.817
			c0,0.317-0.129,0.602-0.338,0.807c-0.21,0.206-0.499,0.333-0.818,0.333h-4.564v1.892h3.889c0.318,0,0.607,0.13,0.817,0.339
			c0.209,0.209,0.339,0.498,0.339,0.817c0,0.317-0.129,0.602-0.338,0.807c-0.21,0.206-0.499,0.333-0.818,0.333h-3.889v1.968h4.639
			c0.318,0,0.607,0.13,0.817,0.339c0.209,0.209,0.339,0.498,0.339,0.817c0,0.317-0.129,0.602-0.338,0.807
			C148.932,26.218,148.642,26.345,148.324,26.345z"/>
		<path class="st0" d="M46.726,26.064c-0.23-0.23-0.371-0.549-0.371-0.905v-8.287c0-0.356,0.141-0.675,0.371-0.905
			c0.23-0.23,0.549-0.371,0.905-0.371h5.885c0.325,0,0.618,0.13,0.829,0.341l0.001,0.001c0.211,0.211,0.341,0.504,0.341,0.829
			c0,0.326-0.13,0.619-0.341,0.83l0,0c-0.211,0.211-0.504,0.341-0.829,0.341h-4.609v1.998h3.934c0.325,0,0.618,0.13,0.829,0.341l0,0
			c0.211,0.211,0.341,0.504,0.341,0.83c0,0.325-0.13,0.618-0.341,0.829l-0.001,0.001c-0.211,0.211-0.504,0.341-0.829,0.341h-3.934
			v2.883c0,0.356-0.141,0.675-0.371,0.905c-0.23,0.23-0.549,0.371-0.905,0.371C47.275,26.435,46.956,26.294,46.726,26.064
			 M57.96,26.064c-0.23-0.23-0.371-0.549-0.371-0.905v-8.377c0-0.356,0.141-0.675,0.371-0.905c0.23-0.23,0.549-0.371,0.905-0.371
			s0.675,0.141,0.905,0.371s0.371,0.549,0.371,0.905v8.377c0,0.356-0.141,0.675-0.371,0.905c-0.23,0.23-0.549,0.371-0.905,0.371
			C58.509,26.435,58.189,26.294,57.96,26.064z M64.392,26.064c-0.23-0.23-0.371-0.549-0.371-0.905v-8.287
			c0-0.356,0.141-0.675,0.371-0.905c0.23-0.23,0.549-0.371,0.905-0.371h3.648c0.675,0,1.278,0.095,1.8,0.277
			c0.536,0.186,0.987,0.464,1.347,0.824c0.305,0.305,0.54,0.674,0.699,1.097c0.156,0.416,0.237,0.883,0.237,1.39v0.03
			c0,0.818-0.198,1.488-0.551,2.026c-0.353,0.538-0.86,0.939-1.477,1.219l1.506,1.829l0.001,0.002
			c0.118,0.149,0.216,0.288,0.287,0.438l0,0c0.072,0.156,0.114,0.322,0.114,0.521c0,0.343-0.138,0.63-0.349,0.836
			c-0.23,0.223-0.546,0.35-0.866,0.35c-0.285,0-0.522-0.07-0.726-0.187c-0.201-0.115-0.366-0.276-0.509-0.459l0,0l-2.215-2.806
			h-1.67v2.177c0,0.356-0.141,0.675-0.371,0.905c-0.23,0.23-0.549,0.371-0.905,0.371C64.941,26.435,64.622,26.294,64.392,26.064z
			 M66.572,17.923v2.778h2.222c0.525,0,0.936-0.135,1.217-0.37c0.283-0.238,0.435-0.583,0.435-0.996v-0.03
			c0-0.449-0.152-0.79-0.428-1.018c-0.292-0.241-0.725-0.363-1.269-0.363L66.572,17.923L66.572,17.923z M82.648,25.584
			c-0.705,0.596-1.714,0.911-2.9,0.911c-0.711,0-1.428-0.11-2.117-0.33c-0.67-0.214-1.313-0.532-1.9-0.953l0,0
			c-0.146-0.103-0.27-0.25-0.356-0.422l0,0c-0.082-0.164-0.13-0.351-0.13-0.546c0-0.333,0.133-0.628,0.349-0.841
			c0.217-0.214,0.518-0.344,0.851-0.344c0.165,0,0.306,0.029,0.427,0.073c0.12,0.043,0.22,0.101,0.302,0.159l0.002,0.001
			c0.389,0.286,0.796,0.517,1.23,0.677c0.431,0.158,0.891,0.246,1.387,0.246c0.449,0,0.805-0.087,1.047-0.244h0.001
			c0.226-0.148,0.35-0.362,0.35-0.627v-0.03c0-0.251-0.078-0.442-0.346-0.619c-0.298-0.197-0.816-0.38-1.68-0.602l0,0
			c-1.072-0.274-1.956-0.56-2.579-1.048c-0.636-0.498-0.994-1.195-0.994-2.28v-0.03c0-0.983,0.393-1.801,1.061-2.376
			c0.674-0.58,1.627-0.911,2.737-0.911c0.639,0,1.239,0.082,1.798,0.238c0.577,0.161,1.11,0.401,1.599,0.711l0,0
			c0.155,0.092,0.309,0.237,0.417,0.431c0.091,0.163,0.149,0.359,0.149,0.585c0,0.332-0.133,0.628-0.349,0.841
			c-0.217,0.214-0.518,0.344-0.851,0.344c-0.124,0-0.236-0.017-0.343-0.048c-0.105-0.031-0.204-0.076-0.302-0.133l0,0
			c-0.375-0.221-0.739-0.394-1.097-0.511c-0.354-0.116-0.702-0.178-1.05-0.178c-0.4,0-0.706,0.086-0.913,0.226
			c-0.21,0.143-0.319,0.345-0.319,0.57v0.03c0,0.299,0.098,0.498,0.393,0.672c0.328,0.194,0.887,0.364,1.783,0.593l0,0
			c1.082,0.282,1.932,0.62,2.514,1.123c0.594,0.513,0.909,1.191,0.909,2.145v0.03C83.726,24.176,83.33,25.009,82.648,25.584z
			 M89.588,26.064c-0.23-0.23-0.371-0.549-0.371-0.905v-7.192h-2.102c-0.326,0-0.622-0.134-0.837-0.348v-0.001
			c-0.215-0.215-0.348-0.511-0.348-0.837s0.134-0.623,0.348-0.837c0.215-0.215,0.512-0.348,0.837-0.348h6.756
			c0.326,0,0.622,0.133,0.837,0.348c0.215,0.215,0.348,0.512,0.348,0.837c0,0.326-0.134,0.623-0.348,0.837
			c-0.215,0.215-0.512,0.348-0.837,0.348h-2.102v7.192c0,0.356-0.141,0.675-0.371,0.905c-0.23,0.23-0.549,0.371-0.905,0.371
			C90.137,26.435,89.818,26.294,89.588,26.064z"/>
	</g>
	<g>
		<path class="st0" d="M6.379,35.818c-0.114,0-0.23-0.029-0.337-0.091l-0.348-0.201l-4.697-2.768
			c-0.911-0.604-0.956-1.218-0.963-2.343c-0.007-1.486-0.008-2.974-0.01-4.462L0.02,22.718c0.041-0.78,0.45-1.493,1.042-1.836
			l16.063-9.546l-0.005,5.929c0,0.318-0.006,0.653-0.041,0.959c-0.149,1.288-0.873,1.907-1.634,2.384L7.574,25.45
			c-0.484,0.323-0.492,0.487-0.521,1.099l0.001,8.577c0.007,0.112-0.024,0.243-0.09,0.358C6.839,35.697,6.612,35.818,6.379,35.818z
			 M16.46,12.502L1.399,21.454c-0.401,0.232-0.687,0.746-0.715,1.281l0.006,3.218c0.001,1.487,0.003,2.975,0.01,4.459
			c0.007,1.117,0.064,1.394,0.651,1.784l5.024,2.957l0.016-0.411l-0.002-8.181c0.032-0.691,0.054-1.157,0.828-1.672l7.878-4.847
			c0.736-0.461,1.215-0.939,1.325-1.896c0.032-0.272,0.036-0.585,0.037-0.882L16.46,12.502z"/>
		<path class="st0" d="M0.676,17.729C0.303,17.729,0,17.426,0,17.053l0.002-4.885c0.019-1.342,0.036-2.501,1.579-3.504l14.533-8.497
			c0.182-0.116,0.466-0.178,0.699-0.051c0.12,0.064,0.321,0.231,0.321,0.631l-0.006,7.22L1.057,17.609
			C0.972,17.678,0.825,17.729,0.676,17.729z M16.47,0.732l-0.014,0.005L1.93,9.229c-1.233,0.802-1.246,1.656-1.264,2.949
			l-0.002,0.155v4.721l15.801-9.463l0.006-6.844C16.471,0.741,16.471,0.736,16.47,0.732z"/>
		<path class="st0" d="M16.334,41.627c-0.114,0-0.23-0.029-0.336-0.091l-5.207-2.999c-0.364-0.218-0.622-0.424-0.78-0.76
			c-0.148-0.315-0.162-0.644-0.136-1.142L9.87,28.539c0.004-0.78,0.346-1.391,1.016-1.817l8.516-5.211
			c0.532-0.325,0.572-0.489,0.538-1.183l0.014-18.945c-0.004-0.331,0.001-0.574,0.096-0.739c0.197-0.342,0.629-0.404,0.91-0.25
			l5.486,3.166c0.545,0.29,0.545,0.821,0.545,1.173l-0.013,18.506c0.007,1.632-0.273,2.522-1.951,3.478l-7.436,4.572
			c-0.515,0.342-0.535,0.442-0.535,1.126c0,1.783-0.014,3.569-0.027,5.354l-0.019,2.784l0.001,0.399
			c-0.001,0.123-0.033,0.239-0.092,0.34C16.794,41.506,16.567,41.627,16.334,41.627z M20.632,0.972
			c-0.02,0.049-0.017,0.274-0.017,0.348l-0.014,18.992c0.041,0.815-0.03,1.262-0.855,1.766l-8.511,5.207
			c-0.469,0.298-0.7,0.71-0.703,1.255l0.005,8.111c-0.024,0.467-0.006,0.675,0.073,0.843c0.081,0.172,0.22,0.296,0.552,0.492
			l5.166,2.975l0.017-0.413c0.005-0.977,0.012-1.953,0.019-2.929c0.013-1.736,0.026-3.472,0.026-5.206
			c0-0.835,0.069-1.173,0.842-1.685l7.455-4.584c1.41-0.804,1.632-1.4,1.625-2.905l0.013-18.507c0-0.399-0.036-0.504-0.203-0.593
			L20.632,0.972z"/>
		<path class="st0" d="M20.763,41.7c-0.157,0-0.277-0.049-0.352-0.093c-0.23-0.135-0.362-0.403-0.352-0.715l-0.055-6.167
			c0.02-0.878,0.306-1.386,1.019-1.822l8.512-5.209c0.533-0.325,0.573-0.489,0.538-1.183l0.01-19.741
			c-0.022-0.226,0.09-0.459,0.3-0.592c0.214-0.137,0.487-0.141,0.713-0.01l3.781,2.189c2.066,1.198,2.359,1.918,2.426,4.14
			l0.003,16.677l-0.003,0.083c-0.044,1.054-0.059,1.256-0.066,1.314c-0.085,0.779-0.413,1.41-1.003,1.922l-0.046,0.033
			l-14.914,9.016C21.075,41.66,20.904,41.7,20.763,41.7z M30.762,6.742l-0.026,19.753c0.041,0.815-0.03,1.261-0.855,1.765
			l-8.512,5.209c-0.522,0.32-0.686,0.614-0.701,1.261l0.054,6.17c-0.003,0.095,0.02,0.131,0.026,0.136
			c0.009,0.003,0.071,0.005,0.183-0.062l14.889-9.001c0.45-0.399,0.692-0.87,0.758-1.482c0.005-0.04,0.019-0.229,0.062-1.263
			c0.001-0.019,0.002-0.038,0.004-0.055h-0.002l-0.003-16.668c-0.061-2.007-0.235-2.496-2.095-3.575L30.762,6.742z"/>
	</g>
</g>
</svg>
