<svg width="307" height="57" viewBox="0 0 307 57" fill="none" xmlns="http://www.w3.org/2000/svg">
<path d="M48.4752 1.52597C49.8032 1.52597 50.928 1.94294 52.1001 2.87675C52.2891 3.02322 52.4703 3.17934 52.6432 3.34451C52.6835 3.38656 52.7343 3.4444 52.7834 3.49871L52.8482 3.57403L52.9235 3.64063C52.9831 3.69144 53.0391 3.74046 53.0794 3.78076C53.245 3.95324 53.4012 4.13456 53.5472 4.32389C55.124 6.30714 55.124 7.9943 54.5634 10.4138L52.8237 17.6828L49.8663 30.0851L47.163 40.7337L43.9165 53.5004L34.9096 44.4847C34.2631 43.8277 33.5886 43.1356 33.0911 42.5102C31.5143 40.5252 31.5143 38.831 32.0766 36.4185L34.4225 26.5373L34.5645 25.9399L34.7291 25.2181L35.0498 23.8743L35.1303 23.5326L35.2723 22.9352L35.8942 20.3178L40.1796 3.23416L45.9997 1.83257C46.8057 1.62929 47.632 1.51702 48.463 1.49791L48.4752 1.52597ZM48.463 0C47.5174 0.0189674 46.5771 0.144722 45.6598 0.374906L38.9514 1.98322L33.7883 22.6286L33.8339 22.6146L33.6937 23.2103L33.6114 23.5607L33.1138 25.607L32.9719 26.2044L30.6242 36.0909C29.997 38.8223 29.9918 41.014 31.9242 43.4493C32.4761 44.1413 33.1804 44.8649 33.8514 45.5516L44.7242 56.435L48.6189 41.1138L51.3257 30.4547L54.2866 18.0437L56.0263 10.7677C56.6535 8.0346 56.6588 5.84462 54.7263 3.40936C54.5439 3.17545 54.3498 2.9509 54.1447 2.73658C54.0693 2.66124 53.9887 2.58942 53.9064 2.51934C53.824 2.44926 53.7645 2.35642 53.6891 2.28109C53.4748 2.076 53.2503 1.88185 53.0164 1.69942C51.4659 0.473028 50.0152 0.024509 48.4612 0.024509L48.463 0Z" fill="white"/>
<path d="M31.4096 5.34775L27.0612 22.6731L20.0042 24.348C19.1972 24.5527 18.3697 24.6655 17.5374 24.6844C16.2094 24.6844 15.0846 24.2674 13.916 23.3354C13.2871 22.8361 12.595 22.1633 11.938 21.5168L2.9223 12.5081L15.689 9.26166L26.3394 6.55836L31.4096 5.34775ZM33.4647 3.31718L25.9802 5.1042L15.3211 7.81101L0 11.7057L10.8834 22.5785C11.5666 23.2513 12.2849 23.9556 12.9857 24.5057C14.538 25.7321 15.9886 26.1789 17.5409 26.1789C18.4863 26.1599 19.4266 26.0347 20.3441 25.8057L28.2928 23.9188L33.4647 3.31543V3.31718Z" fill="white"/>
<path d="M84.2991 19.2637V22.0528H78.4773V25.0662H82.8327V27.7731H78.4773V33.5546H74.9961V19.2637H84.2991Z" fill="white"/>
<path d="M89.614 19.2637V33.5546H86.1328V19.2637H89.614Z" fill="white"/>
<path d="M99.4264 33.5546L96.448 28.1603H95.614V33.5546H92.1328V19.2637H97.9757C99.1016 19.2637 100.062 19.4605 100.856 19.8541C101.6 20.2017 102.221 20.766 102.638 21.4729C103.034 22.1704 103.238 22.9607 103.228 23.7628C103.24 24.675 102.958 25.5669 102.424 26.3066C101.888 27.053 101.097 27.5827 100.052 27.8957L103.351 33.5546H99.4264ZM95.6193 25.697H97.7777C98.4155 25.697 98.8938 25.5405 99.2126 25.2274C99.5315 24.9156 99.6909 24.4758 99.6909 23.9047C99.7037 23.6695 99.6678 23.4342 99.5855 23.2136C99.5032 22.9929 99.3763 22.7916 99.2126 22.6222C98.8938 22.3104 98.4155 22.1544 97.7777 22.1544H95.6193V25.697Z" fill="white"/>
<path d="M107.776 33.188C106.988 32.8791 106.3 32.3575 105.791 31.6813C105.284 30.9829 105.01 30.1424 105.008 29.2793H108.713C108.734 29.7384 108.93 30.1719 109.262 30.49C109.603 30.7791 110.041 30.9281 110.488 30.9069C110.925 30.9343 111.358 30.8106 111.714 30.5565C111.862 30.4392 111.979 30.2886 112.057 30.1171C112.134 29.9456 112.17 29.7582 112.161 29.5702C112.167 29.4078 112.139 29.246 112.078 29.0952C112.018 28.9443 111.927 28.8078 111.811 28.6942C111.556 28.4522 111.259 28.2591 110.935 28.1248C110.453 27.9273 109.961 27.757 109.46 27.6149C108.686 27.3871 107.93 27.1014 107.2 26.76C106.604 26.4649 106.088 26.0325 105.693 25.4985C105.272 24.9414 105.062 24.2149 105.062 23.3191C105.062 21.9899 105.544 20.9481 106.507 20.1935C107.471 19.439 108.727 19.0623 110.274 19.0635C111.848 19.0635 113.117 19.4402 114.081 20.1935C115.046 20.9469 115.562 21.9981 115.628 23.3471H111.862C111.858 23.14 111.811 22.936 111.723 22.7483C111.636 22.5605 111.51 22.3933 111.354 22.2573C111.014 21.9834 110.587 21.8421 110.152 21.8597C109.782 21.8422 109.42 21.962 109.134 22.1961C109.001 22.3184 108.898 22.4687 108.831 22.636C108.764 22.8032 108.735 22.9833 108.747 23.1632C108.744 23.3859 108.804 23.6049 108.919 23.7956C109.034 23.9862 109.2 24.141 109.398 24.2424C110.046 24.5898 110.729 24.8699 111.434 25.0781C112.203 25.3274 112.954 25.6265 113.684 25.9733C114.271 26.2668 114.783 26.6918 115.18 27.2155C115.6 27.7586 115.811 28.4594 115.811 29.3179C115.819 30.1012 115.604 30.8707 115.19 31.5359C114.751 32.2241 114.127 32.7743 113.389 33.1232C112.518 33.5351 111.563 33.7373 110.6 33.7136C109.633 33.726 108.674 33.5474 107.776 33.188Z" fill="white"/>
<path d="M128.215 19.2637V22.0528H124.427V33.5546H120.946V22.0528H117.16V19.2637H128.215Z" fill="white"/>
<path d="M153.945 19.2637L150.22 33.5546H146.005L143.727 24.1499L141.366 33.5546H137.152L133.527 19.2637H137.254L139.309 29.6669L141.855 19.2637H145.681L148.125 29.6669L150.201 19.2637H153.945Z" fill="white"/>
<path d="M164.593 31.0388H159.257L158.402 33.5634H154.758L159.928 19.2725H163.957L169.129 33.5634H165.45L164.593 31.0388ZM163.698 28.3512L161.927 23.1198L160.175 28.3512H163.698Z" fill="white"/>
<path d="M184.115 19.2637L179.052 33.5546H174.69L169.621 19.2637H173.325L176.869 30.0541L180.431 19.2637H184.115Z" fill="white"/>
<path d="M189.037 22.0528V24.9436H193.699V27.6312H189.037V30.7654H194.311V33.5546H185.551V19.2637H194.311V22.0528H189.037Z" fill="white"/>
<path d="M205.432 36.1484H204.516V18.2939H205.432V36.1484Z" fill="white"/>
<path d="M225.524 19.3242L220.129 33.5539H218.5L213.105 19.3242H214.652L219.314 32.0069L224.017 19.3242H225.524Z" fill="white"/>
<path d="M229.09 20.4841V25.7979H234.485V26.9788H229.09V32.3731H235.096V33.554H227.664V19.2998H235.096V20.4806L229.09 20.4841Z" fill="white"/>
<path d="M248.631 33.554H247.205L239.321 21.5774V33.547H237.895V19.3174H239.321L247.205 31.2677V19.3174H248.629L248.631 33.554Z" fill="white"/>
<path d="M260.193 19.3242V20.5051H256.244V33.5539H254.818V20.5051H250.848V19.3242H260.193Z" fill="white"/>
<path d="M263.815 19.3242V28.2821C263.815 29.6931 264.151 30.7378 264.824 31.4164C265.497 32.095 266.416 32.4343 267.582 32.4343C268.75 32.4343 269.663 32.0985 270.32 31.427C270.978 30.7554 271.307 29.7071 271.308 28.2821V19.3242H272.733V28.2593C272.733 30.0639 272.254 31.4211 271.298 32.331C270.341 33.2408 269.096 33.6952 267.562 33.694C266.028 33.694 264.782 33.2397 263.825 32.331C262.869 31.4223 262.391 30.0651 262.391 28.2593V19.3242H263.815Z" fill="white"/>
<path d="M283.484 33.5539L279.963 27.6094H277.335V33.5539H275.91V19.3242H280.185C281.772 19.3242 282.977 19.7038 283.799 20.463C284.622 21.2222 285.03 22.2197 285.026 23.4554C285.054 24.4102 284.744 25.3443 284.15 26.0922C283.559 26.8187 282.687 27.2905 281.534 27.5078L285.197 33.5539H283.484ZM277.34 26.4496H280.211C281.324 26.4496 282.162 26.178 282.725 25.6349C283.288 25.0918 283.57 24.3653 283.57 23.4554C283.57 22.521 283.298 21.7986 282.755 21.2882C282.212 20.7778 281.357 20.5232 280.19 20.5243H277.34V26.4496Z" fill="white"/>
<path d="M289.286 20.4841V25.7979H294.684V26.9788H289.289V32.3731H295.295V33.554H287.863V19.2998H295.295V20.4806L289.286 20.4841Z" fill="white"/>
<path d="M299.937 33.209C299.264 32.9147 298.683 32.443 298.257 31.8442C297.854 31.2705 297.628 30.5915 297.605 29.8907H299.112C299.184 30.5899 299.51 31.2383 300.028 31.7128C300.572 32.2349 301.366 32.4959 302.411 32.4959C303.375 32.4959 304.138 32.2483 304.701 31.7531C304.973 31.5219 305.19 31.2328 305.336 30.907C305.482 30.5811 305.554 30.2267 305.545 29.8697C305.571 29.3373 305.405 28.8134 305.078 28.3928C304.767 28.0216 304.369 27.7347 303.918 27.5588C303.291 27.3229 302.652 27.1223 302.003 26.9579C301.233 26.7615 300.478 26.5097 299.745 26.2045C299.179 25.9539 298.688 25.5617 298.318 25.0657C297.925 24.5495 297.728 23.8487 297.728 22.9634C297.718 22.2658 297.917 21.5811 298.299 20.9976C298.698 20.4046 299.255 19.9358 299.908 19.6451C300.655 19.3075 301.468 19.1406 302.289 19.1563C303.606 19.1563 304.668 19.4787 305.475 20.1234C305.865 20.4228 306.19 20.7981 306.431 21.2266C306.672 21.655 306.824 22.1278 306.877 22.6165H305.33C305.212 21.9973 304.871 21.443 304.372 21.059C303.83 20.6046 303.097 20.3774 302.173 20.3774C301.403 20.3504 300.648 20.5913 300.035 21.059C299.756 21.2799 299.533 21.5638 299.384 21.8875C299.236 22.2112 299.166 22.5654 299.181 22.9213C299.155 23.4443 299.322 23.9584 299.65 24.3667C299.966 24.7367 300.368 25.0236 300.82 25.2024C301.442 25.4424 302.078 25.6465 302.723 25.8138C303.486 26.0161 304.234 26.2708 304.962 26.576C305.535 26.8288 306.033 27.2253 306.407 27.727C306.802 28.2421 306.999 28.9341 306.998 29.8031C306.999 30.4706 306.817 31.1256 306.472 31.697C306.096 32.3167 305.552 32.8177 304.904 33.1424C304.134 33.5262 303.282 33.7145 302.422 33.6908C301.568 33.712 300.721 33.5476 299.937 33.209Z" fill="white"/>
</svg>
