<?xml version="1.0" encoding="utf-8"?>
<!-- Generator: Adobe Illustrator 26.0.2, SVG Export Plug-In . SVG Version: 6.00 Build 0)  -->
<svg version="1.1" id="Layer_1" xmlns="http://www.w3.org/2000/svg" xmlns:xlink="http://www.w3.org/1999/xlink" x="0px" y="0px"
	 viewBox="0 0 41 46" style="enable-background:new 0 0 41 46;" xml:space="preserve">
<style type="text/css">
	.st0{fill-rule:evenodd;clip-rule:evenodd;fill:url(#SVGID_1_);}
</style>
<linearGradient id="SVGID_1_" gradientUnits="userSpaceOnUse" x1="20.5" y1="0.5" x2="20.5" y2="44.5" gradientTransform="matrix(1 0 0 -1 0 48)">
	<stop  offset="3.409090e-02" style="stop-color:#C91926"/>
	<stop  offset="0.7784" style="stop-color:#6F27BB"/>
</linearGradient>
<path class="st0" d="M0.5,19c0.1,0.1,0.3,0.2,0.5,0.2c0.1,0,0.3,0,0.4-0.1L18.9,8.6V0.8c0-0.1,0-0.3-0.1-0.4
	c-0.1-0.1-0.2-0.2-0.3-0.3C18.4,0,18.2,0,18.1,0c-0.1,0-0.3,0.1-0.4,0.1L2,9.4c-1.7,1.1-1.7,2.3-1.7,3.8v5.3
	C0.3,18.6,0.3,18.8,0.5,19z M6.8,38.7c0.1,0.1,0.2,0.1,0.4,0.1c0.1,0,0.2,0,0.4-0.1c0.1-0.1,0.2-0.2,0.3-0.3
	c0.1-0.1,0.1-0.3,0.1-0.4v-9.3c0-0.7,0-0.8,0.6-1.2l8.6-5.3c0.5-0.3,0.9-0.6,1.2-1.1s0.5-1,0.6-1.5c0-0.3,0-0.7,0-1v-6.4L1.4,22.6
	c-0.3,0.2-0.6,0.5-0.8,0.9c-0.2,0.3-0.3,0.7-0.3,1.1v3.5v4.8c0,1.2,0.1,1.9,1,2.6l5.1,3L6.8,38.7z M18,45.1c-0.1,0-0.3,0-0.4-0.1
	L12,41.8c-0.4-0.2-0.7-0.5-0.9-0.8c-0.2-0.4-0.2-0.8-0.1-1.2v-8.8c0-0.4,0.1-0.8,0.3-1.1c0.2-0.3,0.5-0.6,0.8-0.8l9.2-5.7
	c0.6-0.4,0.6-0.5,0.6-1.3V1.4c0-0.3,0-0.5,0.1-0.8c0.1-0.2,0.3-0.3,0.4-0.3c0.2-0.1,0.4,0,0.5,0.1l6,3.4c0.2,0.1,0.4,0.3,0.5,0.6
	c0.1,0.2,0.1,0.5,0.1,0.7v20.1c0,1.8-0.3,2.7-2.1,3.8l-8.1,5c-0.6,0.4-0.6,0.5-0.6,1.2c0,1.9,0,3.9,0,5.8v3v0.4c0,0.1,0,0.2-0.1,0.3
	c0,0.1-0.1,0.2-0.2,0.2C18.5,45,18.4,45,18.3,45C18.2,45.1,18.1,45.1,18,45.1L18,45.1z M22.4,45.1c0.1,0.1,0.2,0.1,0.4,0.1
	c0.2,0,0.4-0.1,0.6-0.2l16.2-9.8l0,0c0.6-0.5,1-1.3,1.1-2.1c0-0.1,0-0.3,0.1-1.4V13.5c-0.1-2.4-0.4-3.2-2.6-4.5L34,6.7
	c-0.1-0.1-0.3-0.1-0.4-0.1c-0.1,0-0.3,0-0.4,0.1C33.1,6.7,33,6.8,33,6.9c-0.1,0.1-0.1,0.2-0.1,0.4v21.4c0,0.8,0,0.9-0.6,1.3
	l-9.2,5.7c-0.4,0.2-0.6,0.5-0.8,0.8c-0.2,0.4-0.3,0.8-0.3,1.2l0.1,6.7c0,0.2,0,0.3,0.1,0.4C22.2,44.9,22.3,45,22.4,45.1z"/>
</svg>
