<svg width="49" height="35" viewBox="0 0 49 35" fill="none" xmlns="http://www.w3.org/2000/svg">
<path d="M26.2194 17.1893V17.239C26.2127 17.8078 26.0568 18.3649 25.7672 18.8546L24.3777 21.1098L23.2749 22.9074L22.4422 24.2584L22.1996 24.6499L18.213 31.1179C17.1101 32.8934 15.9467 34.0513 13.6308 34.3215C12.9253 34.3906 12.2166 34.4201 11.5078 34.4098H0L6.06547 24.2528L10.2506 17.2114L6.06547 10.1644L0 0.00200318H11.5078C12.2166 -0.00829897 12.9253 0.0211408 13.6308 0.0902134C15.9467 0.360403 17.1046 1.51838 18.213 3.2884L22.1996 9.7619L22.4422 10.1534L23.2749 11.5043L24.3777 13.2964L25.7672 15.5572C26.0596 16.0517 26.2157 16.6149 26.2194 17.1893V17.1893Z" fill="url(#paint0_linear_664_16)"/>
<path d="M42.838 24.2588L48.9035 34.4157H37.3736C36.6648 34.426 35.9561 34.3965 35.2506 34.3275C32.9347 34.0573 31.7768 32.8993 30.6685 31.1238L26.9961 25.1631L27.3049 24.6558L27.5475 24.2643L28.3801 22.9133L29.4829 21.1158L30.8725 18.8605C31.1621 18.3709 31.318 17.8138 31.3246 17.2449V17.1953C31.318 16.6264 31.1621 16.0693 30.8725 15.5796L29.4829 13.3189L28.3801 11.5268L27.5475 10.1759L27.3049 9.78436L26.9961 9.27708L30.6685 3.31086C31.7713 1.54084 32.9347 0.382896 35.2506 0.112706C35.9561 0.0436339 36.6648 0.0141604 37.3736 0.0244626H48.8814L42.8159 10.1869L38.6308 17.2339L42.838 24.2588Z" fill="url(#paint1_linear_664_16)"/>
<defs>
<linearGradient id="paint0_linear_664_16" x1="13.1124" y1="54.3597" x2="13.1124" y2="-5.0158" gradientUnits="userSpaceOnUse">
<stop stop-color="#00FFF0"/>
<stop offset="0.49" stop-color="#02F6F1"/>
<stop offset="1" stop-color="#2D01DE"/>
</linearGradient>
<linearGradient id="paint1_linear_664_16" x1="37.9415" y1="54.36" x2="37.9415" y2="-5.01539" gradientUnits="userSpaceOnUse">
<stop stop-color="#00FFF0"/>
<stop offset="0.49" stop-color="#02F6F1"/>
<stop offset="1" stop-color="#2D01DE"/>
</linearGradient>
</defs>
</svg>
