<svg width="219" height="39" viewBox="0 0 219 39" fill="none" xmlns="http://www.w3.org/2000/svg">
<path d="M79.2618 12.6719V15.461H73.44V18.4745H77.7954V21.1812H73.44V26.9628H69.957V12.6719H79.2618Z" fill="white"/>
<path d="M84.575 12.6719V26.9628H81.0938V12.6719H84.575Z" fill="white"/>
<path d="M94.389 26.9628L91.4107 21.5684H90.5767V26.9628H87.0938V12.6719H92.9384C94.0632 12.6719 95.0232 12.8687 95.8186 13.2623C96.5622 13.6099 97.1834 14.1742 97.6004 14.8811C97.9961 15.5787 98.1992 16.369 98.1891 17.171C98.2007 18.083 97.9194 18.9746 97.3867 19.7149C96.8482 20.4612 96.0575 20.9909 95.0145 21.3039L98.3117 26.9628H94.389ZM90.582 19.1051H92.7387C93.3764 19.1051 93.8553 18.9487 94.1753 18.6356C94.4942 18.3238 94.6536 17.884 94.6536 17.3128C94.6664 17.0777 94.6305 16.8425 94.5482 16.6218C94.4659 16.4011 94.339 16.1998 94.1753 16.0304C93.8553 15.7186 93.3764 15.5627 92.7387 15.5627H90.582V19.1051Z" fill="white"/>
<path d="M102.735 26.5972C101.946 26.2883 101.259 25.7667 100.75 25.0905C100.243 24.3918 99.9683 23.5516 99.9648 22.6885H103.67C103.692 23.1476 103.889 23.5809 104.22 23.8991C104.561 24.1888 105 24.3378 105.447 24.3161C105.884 24.344 106.317 24.2203 106.673 23.9657C106.821 23.8487 106.939 23.6983 107.017 23.5268C107.095 23.3552 107.131 23.1676 107.122 22.9794C107.127 22.817 107.099 22.6553 107.039 22.5045C106.978 22.3537 106.887 22.2171 106.771 22.1034C106.517 21.8613 106.22 21.6683 105.895 21.534C105.414 21.3365 104.921 21.1662 104.42 21.0241C103.646 20.7963 102.891 20.5105 102.16 20.1692C101.565 19.8741 101.048 19.4417 100.653 18.9077C100.233 18.3506 100.023 17.6241 100.023 16.7282C100.023 15.3979 100.504 14.3561 101.468 13.6027C102.432 12.8494 103.687 12.4727 105.233 12.4727C106.807 12.4727 108.077 12.8494 109.04 13.6027C110.004 14.3561 110.52 15.4073 110.589 16.7563H106.822C106.818 16.5491 106.771 16.345 106.683 16.1573C106.595 15.9696 106.469 15.8024 106.312 15.6665C105.974 15.3924 105.547 15.251 105.112 15.2688C104.743 15.251 104.38 15.3709 104.094 15.6052C103.951 15.7452 103.843 15.9164 103.778 16.1054C103.712 16.2943 103.692 16.496 103.717 16.6943C103.743 16.8926 103.814 17.0823 103.925 17.2484C104.037 17.4145 104.185 17.5525 104.359 17.6515C105.007 17.999 105.689 18.279 106.395 18.4872C107.163 18.7372 107.914 19.0362 108.644 19.3825C109.232 19.6759 109.744 20.1011 110.14 20.6247C110.561 21.1678 110.771 21.8686 110.771 22.7271C110.78 23.5104 110.564 24.2798 110.151 24.945C109.711 25.6329 109.086 26.183 108.348 26.5323C107.477 26.9446 106.522 27.1469 105.559 27.1228C104.592 27.1354 103.632 26.9568 102.735 26.5972Z" fill="white"/>
<path d="M123.17 12.6719V15.461H119.39V26.9628H115.903V15.461H112.117V12.6719H123.17Z" fill="white"/>
<path d="M148.906 12.6719L145.179 26.9628H140.966L138.688 17.5582L136.327 26.9628H132.111L128.488 12.6719H132.213L134.27 23.0751L136.815 12.6719H140.642L143.086 23.0751L145.162 12.6719H148.906Z" fill="white"/>
<path d="M159.551 24.447H154.218L153.363 26.9717H149.719L154.889 12.6807H158.918L164.089 26.9717H160.409L159.551 24.447ZM158.656 21.7595L156.883 16.5193L155.131 21.7507L158.656 21.7595Z" fill="white"/>
<path d="M179.074 12.6719L174.006 26.9628H169.648L164.578 12.6719H168.284L171.826 23.4623L175.39 12.6719H179.074Z" fill="white"/>
<path d="M184.004 15.461V18.3518H188.666V21.0393H184.004V24.1736H189.276V26.9628H180.516V12.6719H189.276V15.461H184.004Z" fill="white"/>
<path d="M200.393 29.5576H199.477V11.7031H200.393V29.5576Z" fill="white"/>
<path d="M214.335 19.8587L218.651 26.963H217.063L213.438 21.0185L209.997 26.963H208.41L212.706 19.7974L208.41 12.7334H209.997L213.601 18.6569L217.082 12.7334H218.672L214.335 19.8587Z" fill="white"/>
<path d="M52.4138 1.33854L47.1719 10.1335L47.0913 10.2684L42.219 18.4607L42.0438 18.7445L41.6408 19.4208L42.042 20.097L42.2172 20.3809L47.0895 28.5801L47.1193 28.6309L52.4103 37.5171H42.3819H42.1752C41.4218 37.5048 40.7123 37.4943 40.1096 37.426C39.1723 37.3138 38.454 37.0492 37.8513 36.592C37.2977 36.1732 36.7791 35.5513 36.1641 34.579L32.1556 28.0791L34.3175 24.5751L34.3263 24.5594L34.3368 24.5418L35.8014 22.0085L35.8488 21.9261C36.3134 21.0913 36.5459 20.1472 36.5222 19.1921C36.4985 18.237 36.2193 17.3057 35.7138 16.4949L35.6561 16.4073L34.4735 14.5853L34.3421 14.3681L34.3193 14.3295L34.3053 14.305L34.2702 14.2471L34.2439 14.2121L32.1416 10.808L36.1571 4.30289C36.765 3.33229 37.2836 2.71205 37.8338 2.29332C38.4382 1.8343 39.16 1.56979 40.0973 1.45942C40.848 1.38935 41.6018 1.35948 42.3557 1.37002H52.3998L52.4138 1.33854ZM54.7299 0.0473071H42.3557C41.5515 0.0360453 40.7473 0.0681777 39.9467 0.143632C38.6905 0.292551 37.7794 0.669228 37.0349 1.23862C36.2903 1.80802 35.6648 2.59466 35.0341 3.6003L30.6016 10.7817L33.156 14.9322L33.1735 14.9549L33.1875 14.9795L33.2103 15.0163L33.3522 15.2545L34.547 17.0941C34.9526 17.7208 35.1773 18.4473 35.1965 19.1935C35.2157 19.9397 35.0285 20.6767 34.6557 21.3234L33.1928 23.8568L30.6051 28.0616L35.0499 35.2657C35.6841 36.2731 36.3008 37.0563 37.0559 37.6292C37.811 38.2021 38.7097 38.5753 39.9624 38.7242C40.6299 38.7995 41.392 38.8118 42.1594 38.824H42.3767H54.7439L48.2301 27.8864L43.356 19.6871L43.1808 19.4032L43.356 19.1194L48.2301 10.9289L54.7439 0L54.7299 0.0473071Z" fill="white"/>
<path d="M12.4676 1.3456C13.2197 1.33513 13.9718 1.36491 14.7207 1.43491C15.665 1.54528 16.3851 1.81163 16.9983 2.2689C17.5484 2.68762 18.0669 3.30778 18.6749 4.27838L23.2966 11.7664V11.7786L23.5717 12.2201L23.584 12.2412L24.5301 13.7707V13.7812L25.7704 15.7907V15.8047L25.8002 15.8538L25.8142 15.8766L27.4208 18.4748C27.5894 18.7652 27.6771 19.0955 27.6749 19.4313C27.6744 19.7684 27.5856 20.0994 27.4173 20.3914L25.8405 22.9405L25.8125 22.9861L24.5301 25.0657L23.5892 26.5864L23.57 26.6197L23.2896 27.0717L23.2791 27.0875L18.7239 34.4774L18.7117 34.4914L18.6609 34.5807C18.0512 35.5426 17.5361 36.1576 16.9877 36.5746C16.3833 37.0318 15.665 37.2981 14.7277 37.4085C14.125 37.4768 13.4155 37.489 12.6603 37.5013H2.42697L7.74952 28.5661L12.6236 20.3774L12.7988 20.0936L13.2017 19.4155L12.797 18.7376L12.6218 18.4554L7.74075 10.2632L2.42175 1.34029H12.4571L12.4676 1.3456ZM12.4571 0.0175781H0.0898438L6.60372 10.9412L11.4848 19.1318L11.66 19.4155L11.4848 19.6994L6.60372 27.8987L0.0898438 38.8363H12.4588H12.6761C13.4435 38.824 14.2056 38.8118 14.8731 38.7365C16.1258 38.5876 17.035 38.2109 17.7796 37.6415C18.5242 37.0721 19.1514 36.2854 19.7857 35.2798L24.4109 27.7848L24.6912 27.3328L25.6566 25.7718L26.939 23.6921L28.5508 21.0834C28.8434 20.5858 28.9976 20.0191 28.9976 19.4419C28.9976 18.8646 28.8434 18.2979 28.5508 17.8002L26.939 15.1915L26.9268 15.1688V15.1547L25.6583 13.0961L24.693 11.5351L24.4126 11.0832L19.7857 3.58639C19.1549 2.58075 18.54 1.79762 17.7849 1.22472C17.0298 0.651821 16.1293 0.278648 14.8731 0.129729C14.0724 0.0544374 13.2682 0.0222199 12.4641 0.0333186L12.4571 0.0175781Z" fill="white"/>
</svg>
