<svg width="45" height="45" viewBox="0 0 45 45" fill="none" xmlns="http://www.w3.org/2000/svg">
<path d="M26.9328 18.0117L31.0566 1.57935L36.4067 0.296014C38.5798 -0.200209 40.3308 -0.205926 42.2701 1.33408C42.4526 1.47667 42.6294 1.63067 42.8405 1.79608L43.0115 1.99002C43.0783 2.04243 43.1413 2.09961 43.1998 2.16112C43.3649 2.32998 43.5192 2.50905 43.6618 2.69727C45.2075 4.64224 45.2018 6.38758 44.6999 8.5664L43.3139 14.3671L40.9525 24.2573L38.7966 32.7558L35.6652 44.9732L27.0012 36.2921C26.461 35.7622 25.9489 35.2044 25.467 34.621C23.9213 32.676 23.9269 30.9306 24.4289 28.7518L26.2997 20.8693L26.4137 20.3959L26.8073 18.7532L26.8701 18.4794L26.9841 18.006L26.9328 18.0117Z" fill="url(#paint0_linear_664_13)"/>
<path d="M0 9.3078L12.2116 6.19927L20.7101 4.04327L26.6763 2.62305L22.5524 19.044L16.2213 20.5498C14.0425 21.046 12.2972 21.0517 10.3523 19.5117C9.78188 19.0725 9.21147 18.5136 8.67532 17.9774L0 9.3078Z" fill="url(#paint1_linear_664_13)"/>
<defs>
<linearGradient id="paint0_linear_664_13" x1="53.5007" y1="3.13075" x2="18.4229" y2="38.2086" gradientUnits="userSpaceOnUse">
<stop stop-color="#F97921"/>
<stop offset="1" stop-color="#ED26CC"/>
</linearGradient>
<linearGradient id="paint1_linear_664_13" x1="37.9126" y1="-12.4576" x2="2.83477" y2="22.6203" gradientUnits="userSpaceOnUse">
<stop stop-color="#F97921"/>
<stop offset="1" stop-color="#ED26CC"/>
</linearGradient>
</defs>
</svg>
