<?xml version="1.0" encoding="utf-8"?>
<!-- Generator: Adobe Illustrator 25.2.3, SVG Export Plug-In . SVG Version: 6.00 Build 0)  -->
<svg version="1.1" id="Layer_1" xmlns="http://www.w3.org/2000/svg" xmlns:xlink="http://www.w3.org/1999/xlink" x="0px" y="0px"
	 viewBox="0 0 50 50" style="enable-background:new 0 0 50 50;" xml:space="preserve">
<style type="text/css">
	.st0{fill-rule:evenodd;clip-rule:evenodd;}
</style>
<g id="Page-1">
	<g id="Artboard" transform="translate(-199.000000, -117.000000)">
		<g id="f_logo_RGB-White_1024" transform="translate(199.000000, 117.000000)">
			<path id="Fill-1" class="st0" d="M49.8,25.2C49.8,11.5,38.7,0.3,25,0.3S0.2,11.5,0.2,25.2c0,12.4,9.1,22.6,20.9,24.5V32.3h-6.3
				v-7.2h6.3v-5.5c0-6.2,3.7-9.7,9.4-9.7c2.7,0,5.5,0.5,5.5,0.5v6.1h-3.1c-3.1,0-4,1.9-4,3.9v4.7h6.9l-1.1,7.2h-5.8v17.3
				C40.7,47.8,49.8,37.5,49.8,25.2"/>
		</g>
	</g>
</g>
</svg>
