<?xml version="1.0" encoding="utf-8"?>
<!-- Generator: Adobe Illustrator 25.2.3, SVG Export Plug-In . SVG Version: 6.00 Build 0)  -->
<svg version="1.1" id="Layer_1" xmlns="http://www.w3.org/2000/svg" xmlns:xlink="http://www.w3.org/1999/xlink" x="0px" y="0px"
	 viewBox="0 0 50 50" style="enable-background:new 0 0 50 50;" xml:space="preserve">
<style type="text/css">
	.st0{fill:#FFFFFF;}
</style>
<path class="st0" d="M49.425,31.382c-0.163-0.504-0.588-0.864-1.109-0.951c-0.03-1.13-0.149-2.954-0.582-4.514
	c-0.664-2.387-2.531-4.23-4.877-4.811c-0.035-0.008-0.073-0.011-0.108-0.019c1.666-1.162,2.763-3.085,2.763-5.266
	c0-3.542-2.881-6.423-6.423-6.423c-3.542,0-6.423,2.881-6.423,6.423c0,2.196,1.111,4.135,2.797,5.294
	c-0.282,0.077-0.564,0.148-0.845,0.255c-0.404,0.154-0.607,0.606-0.454,1.01c0.119,0.313,0.416,0.505,0.732,0.505
	c0.093,0,0.187-0.016,0.278-0.051c1.074-0.408,2.279-0.59,3.91-0.59c0.001,0,0.001,0,0.002,0c0.001,0,0.002,0,0.003,0
	c0.003,0,0.005-0.001,0.008-0.001c1.199,0.001,2.339,0.13,3.386,0.384c1.795,0.445,3.229,1.866,3.741,3.709
	c0.358,1.286,0.479,2.809,0.518,3.862l-1.965-0.286l-1.569-3.18c-0.479-0.97-2.051-0.97-2.53,0l-1.569,3.18l-2.999,0.436
	c-0.004-0.166-0.031-0.332-0.084-0.496c-0.206-0.635-0.745-1.089-1.406-1.185l-0.388-0.056c0.004-1.131-0.062-3.394-0.589-5.232
	c-0.665-2.39-2.533-4.233-4.875-4.81c-0.036-0.009-0.076-0.011-0.112-0.02c1.671-1.161,2.772-3.089,2.772-5.273
	c0-3.542-2.881-6.423-6.423-6.423c-3.541,0-6.422,2.881-6.422,6.423c0,2.185,1.101,4.113,2.772,5.273
	c-0.036,0.009-0.076,0.011-0.111,0.02c-2.341,0.577-4.209,2.42-4.873,4.804c-0.501,1.749-0.593,3.925-0.598,5.237l-0.394,0.057
	c-0.66,0.096-1.198,0.551-1.405,1.185c-0.053,0.163-0.079,0.33-0.084,0.496l-2.998-0.436l-1.57-3.18c-0.479-0.97-2.051-0.97-2.53,0
	l-1.569,3.18l-1.964,0.286c0.039-1.054,0.16-2.577,0.517-3.861c0.512-1.844,1.946-3.266,3.737-3.709
	c1.052-0.254,2.192-0.384,3.39-0.385c0.003,0,0.005,0.001,0.008,0.001c0.001,0,0.002,0,0.003,0c0.001,0,0.001,0,0.002,0
	c1.631,0,2.837,0.182,3.91,0.59c0.092,0.035,0.186,0.051,0.278,0.051c0.316,0,0.613-0.192,0.732-0.505
	c0.154-0.405-0.05-0.857-0.454-1.01c-0.281-0.107-0.564-0.178-0.846-0.255c1.686-1.159,2.797-3.097,2.797-5.294
	c0-3.542-2.881-6.423-6.423-6.423s-6.423,2.881-6.423,6.423c0,2.181,1.097,4.105,2.763,5.266c-0.036,0.008-0.075,0.011-0.111,0.02
	c-2.342,0.58-4.209,2.424-4.874,4.811c-0.433,1.558-0.552,3.383-0.581,4.514c-0.521,0.087-0.946,0.447-1.11,0.952
	c-0.167,0.515-0.031,1.068,0.356,1.446l2.54,2.476l-0.6,3.494c-0.092,0.533,0.123,1.062,0.561,1.38
	c0.437,0.317,1.004,0.358,1.487,0.108l3.138-1.65l3.139,1.65c0.208,0.109,0.433,0.163,0.657,0.163c0.291,0,0.581-0.092,0.829-0.272
	c0.437-0.318,0.652-0.847,0.561-1.38l-0.6-3.494l2.54-2.476c0.078-0.076,0.138-0.163,0.195-0.252l3.066,2.988l-0.951,5.546
	c-0.112,0.658,0.153,1.31,0.693,1.702c0.541,0.392,1.242,0.443,1.834,0.132L25,40.327l4.98,2.618
	c0.257,0.135,0.535,0.202,0.812,0.202c0.359,0,0.716-0.112,1.021-0.333c0.54-0.392,0.806-1.045,0.693-1.703l-0.951-5.546
	l3.066-2.989c0.057,0.089,0.118,0.176,0.196,0.252l2.539,2.475l-0.6,3.495c-0.092,0.533,0.123,1.062,0.561,1.38
	c0.435,0.317,1.006,0.358,1.488,0.108l3.138-1.65l3.139,1.65c0.208,0.109,0.433,0.163,0.657,0.163c0.291,0,0.581-0.092,0.829-0.272
	c0.437-0.318,0.652-0.847,0.561-1.38l-0.599-3.494l2.539-2.476C49.455,32.451,49.592,31.897,49.425,31.382z M34.233,15.821
	c0-2.678,2.179-4.856,4.856-4.856s4.856,2.179,4.856,4.856c0,2.675-2.175,4.851-4.848,4.856c-0.004,0-0.008-0.001-0.013-0.001
	c-0.001,0-0.002,0.001-0.004,0.001C36.407,20.672,34.233,18.496,34.233,15.821z M6.054,15.821c0-2.678,2.179-4.856,4.856-4.856
	s4.856,2.179,4.856,4.856c0,2.675-2.175,4.851-4.848,4.856c-0.001,0-0.002-0.001-0.004-0.001c-0.004,0-0.008,0.001-0.013,0.001
	C8.229,20.672,6.054,18.496,6.054,15.821z M20.15,13.276c0-2.678,2.178-4.856,4.856-4.856s4.856,2.179,4.856,4.856
	s-2.179,4.856-4.856,4.856S20.15,15.953,20.15,13.276z M17.879,23.799c0.515-1.847,1.947-3.268,3.74-3.71
	c1.026-0.252,2.196-0.385,3.385-0.385c0.001,0,0.002-0.001,0.003-0.001c0.001,0,0.002,0.001,0.003,0.001
	c1.188,0,2.359,0.133,3.384,0.385c1.793,0.442,3.226,1.863,3.742,3.715c0.409,1.43,0.523,3.309,0.53,4.579l-3.614-0.525
	l-2.491-5.045c-0.295-0.599-0.893-0.971-1.561-0.971s-1.266,0.372-1.561,0.971l-2.49,5.045l-3.607,0.524
	C17.355,27.146,17.455,25.28,17.879,23.799z M11.256,34.47c-0.184,0.18-0.268,0.439-0.225,0.693l0.616,3.591l-3.225-1.695
	c-0.114-0.06-0.239-0.09-0.364-0.09c-0.125,0-0.25,0.03-0.365,0.09l-3.224,1.695l0.616-3.591c0.044-0.254-0.041-0.513-0.225-0.693
	l-2.609-2.543l3.604-0.524c0.255-0.037,0.476-0.197,0.59-0.428l1.612-3.267l1.613,3.267c0.114,0.231,0.334,0.392,0.59,0.428
	l3.604,0.524L11.256,34.47z M30.963,41.375c0.012,0.071-0.011,0.128-0.07,0.171c-0.057,0.042-0.122,0.046-0.184,0.014l-5.345-2.81
	c-0.228-0.121-0.499-0.121-0.729,0l-5.344,2.81c-0.063,0.034-0.126,0.03-0.185-0.014c-0.058-0.042-0.082-0.099-0.07-0.171
	l1.021-5.952c0.044-0.254-0.041-0.513-0.225-0.693l-4.324-4.215c-0.052-0.05-0.067-0.111-0.044-0.18
	c0.022-0.069,0.07-0.109,0.141-0.119l5.976-0.868c0.255-0.037,0.476-0.197,0.59-0.428l2.672-5.415
	c0.032-0.065,0.085-0.097,0.157-0.097s0.125,0.032,0.157,0.097l2.673,5.415c0.114,0.231,0.334,0.392,0.59,0.428l4.979,0.723
	c0.001,0,0.002,0.001,0.003,0.001c0.001,0,0.002,0,0.003,0l0.989,0.144c0.071,0.011,0.119,0.05,0.141,0.119
	c0.022,0.069,0.008,0.129-0.044,0.18l-4.324,4.215c-0.184,0.18-0.268,0.439-0.225,0.693L30.963,41.375z M45.141,34.47
	c-0.184,0.18-0.268,0.439-0.225,0.693l0.615,3.591l-3.224-1.695c-0.229-0.121-0.5-0.121-0.73,0l-3.224,1.696l0.616-3.591
	c0.044-0.254-0.041-0.513-0.225-0.693l-2.608-2.543l3.604-0.524c0.255-0.037,0.476-0.197,0.59-0.428l1.612-3.266l1.612,3.266
	c0.114,0.231,0.334,0.392,0.59,0.428l3.604,0.524L45.141,34.47z"/>
</svg>
