<?xml version="1.0" encoding="utf-8"?>
<!-- Generator: Adobe Illustrator 25.2.3, SVG Export Plug-In . SVG Version: 6.00 Build 0)  -->
<svg version="1.1" id="Layer_1" xmlns="http://www.w3.org/2000/svg" xmlns:xlink="http://www.w3.org/1999/xlink" x="0px" y="0px"
	 viewBox="0 0 50 50" style="enable-background:new 0 0 50 50;" xml:space="preserve">
<style type="text/css">
	.st0{fill:#FFFFFF;}
</style>
<g>
	<path class="st0" d="M42.833,5.87H22.471c-1.296,0-2.349,1.054-2.349,2.349v32.892c0,1.296,1.054,2.349,2.349,2.349h20.362
		c1.296,0,2.349-1.054,2.349-2.349V8.219C45.183,6.923,44.129,5.87,42.833,5.87z M21.688,12.135h21.928v21.928H21.688V12.135z
		 M22.471,7.436h20.362c0.432,0,0.783,0.351,0.783,0.783v2.349H21.688V8.219C21.688,7.787,22.039,7.436,22.471,7.436z
		 M42.833,41.895H22.471c-0.432,0-0.783-0.351-0.783-0.783v-5.482h21.928v5.482C43.616,41.543,43.265,41.895,42.833,41.895z"/>
	<path class="st0" d="M14.856,5.87h-7.08c-1.296,0-2.349,1.054-2.349,2.349v32.892c0,1.296,1.054,2.349,2.349,2.349h7.08
		c1.296,0,2.349-1.054,2.349-2.349V8.219C17.206,6.923,16.152,5.87,14.856,5.87z M14.856,41.895h-7.08
		c-0.432,0-0.783-0.351-0.783-0.783V8.219c0-0.432,0.351-0.783,0.783-0.783h7.08c0.432,0,0.783,0.351,0.783,0.783v2.349h-4.837
		c-0.433,0-0.783,0.35-0.783,0.783c0,0.433,0.35,0.783,0.783,0.783h4.837v3.144h-2.027c-0.433,0-0.783,0.35-0.783,0.783
		c0,0.433,0.35,0.783,0.783,0.783h2.027v3.144h-4.837c-0.433,0-0.783,0.35-0.783,0.783s0.35,0.783,0.783,0.783h4.837V24.7h-2.027
		c-0.433,0-0.783,0.35-0.783,0.783c0,0.433,0.35,0.783,0.783,0.783h2.027v3.143h-4.837c-0.433,0-0.783,0.35-0.783,0.783
		c0,0.433,0.35,0.783,0.783,0.783h4.837v3.144h-2.027c-0.433,0-0.783,0.35-0.783,0.783c0,0.433,0.35,0.783,0.783,0.783h2.027v5.425
		C15.639,41.543,15.288,41.895,14.856,41.895z"/>
	<circle class="st0" cx="32.652" cy="38.762" r="1.566"/>
</g>
</svg>
