<?xml version="1.0" encoding="utf-8"?>
<!-- Generator: Adobe Illustrator 25.2.3, SVG Export Plug-In . SVG Version: 6.00 Build 0)  -->
<svg version="1.1" id="Layer_1" xmlns="http://www.w3.org/2000/svg" xmlns:xlink="http://www.w3.org/1999/xlink" x="0px" y="0px"
	 viewBox="0 0 50 50" style="enable-background:new 0 0 50 50;" xml:space="preserve">
<style type="text/css">
	.st0{fill:#FFFFFF;}
</style>
<path class="st0" d="M42.887,10.339h-4.809V7.113c0-0.433-0.35-0.783-0.783-0.783H12.705c-0.433,0-0.783,0.35-0.783,0.783v3.226
	H7.113c-0.433,0-0.783,0.35-0.783,0.783v6.156c0,4.992,3.821,9.121,8.754,9.552c1.815,2.118,4.239,3.618,6.941,4.245v2.855
	l-1.823,3.052h-3.425c-0.433,0-0.783,0.35-0.783,0.783v5.122c0,0.433,0.35,0.783,0.783,0.783h16.446c0.433,0,0.783-0.35,0.783-0.783
	v-5.122c0-0.433-0.35-0.783-0.783-0.783h-3.424l-1.823-3.052l-0.002-2.855c2.702-0.627,5.126-2.126,6.942-4.245
	c4.933-0.432,8.754-4.56,8.754-9.552v-6.156C43.671,10.689,43.32,10.339,42.887,10.339z M7.896,17.278v-5.373h4.026v6.438
	c0,0.531,0.042,1.054,0.104,1.573c0.014,0.115,0.027,0.23,0.044,0.345c0.074,0.505,0.171,1.003,0.302,1.492
	c0.02,0.075,0.046,0.147,0.068,0.221c0.127,0.439,0.278,0.871,0.451,1.294c0.039,0.095,0.074,0.191,0.115,0.286
	c0.201,0.46,0.43,0.909,0.685,1.347c0.021,0.036,0.035,0.075,0.057,0.112C10.356,24.06,7.896,20.944,7.896,17.278z M32.44,42.104
	H17.56v-3.556h3.086h8.709h3.085V42.104z M27.069,29.664c-0.353,0.064-0.617,0.359-0.642,0.717l-0.017,3.767
	c0,0.141,0.038,0.28,0.111,0.402l1.454,2.434h-5.949l1.454-2.434c0.073-0.122,0.111-0.26,0.111-0.402L23.589,30.6l-0.015-0.219
	c-0.025-0.358-0.29-0.652-0.642-0.717c-2.698-0.488-5.141-1.936-6.876-4.075c-1.679-2.079-2.567-4.585-2.567-7.246v-7.221V7.896
	h23.024v3.226v7.221c0,2.661-0.888,5.166-2.567,7.246c0,0,0,0,0,0C32.209,27.729,29.767,29.176,27.069,29.664z M42.104,17.278
	c0,3.666-2.46,6.782-5.852,7.734c0.021-0.035,0.035-0.074,0.055-0.109c0.256-0.439,0.486-0.89,0.687-1.351
	c0.04-0.093,0.075-0.187,0.113-0.281c0.174-0.425,0.326-0.858,0.453-1.3c0.021-0.073,0.047-0.145,0.067-0.218
	c0.131-0.489,0.229-0.988,0.303-1.492c0.017-0.115,0.03-0.23,0.044-0.345c0.062-0.519,0.104-1.042,0.104-1.573v-6.438h4.026V17.278z
	"/>
</svg>
