<?xml version="1.0" encoding="utf-8"?>
<!-- Generator: Adobe Illustrator 25.2.3, SVG Export Plug-In . SVG Version: 6.00 Build 0)  -->
<svg version="1.1" id="Layer_1" xmlns="http://www.w3.org/2000/svg" xmlns:xlink="http://www.w3.org/1999/xlink" x="0px" y="0px"
	 viewBox="0 0 50 50" style="enable-background:new 0 0 50 50;" xml:space="preserve">
<style type="text/css">
	.st0{fill:#FFFFFF;}
</style>
<path class="st0" d="M46.3,0H3.7C1.6,0,0,1.6,0,3.7v42.7c0,2,1.6,3.7,3.7,3.7h42.7c2,0,3.7-1.6,3.7-3.7V3.7C50,1.6,48.4,0,46.3,0z
	 M14.9,42.5H7.5V18.7h7.4V42.5z M11.2,15.6c-2.4,0-4.4-2-4.4-4.4s2-4.4,4.4-4.4s4.4,2,4.4,4.4C15.5,13.6,13.6,15.6,11.2,15.6z
	 M42.5,42.5h-7.3v-12c0-0.7,0-1.3-0.1-2c-0.2-1.4-0.6-2.9-1.9-3.5c-1.2-0.6-2.7-0.5-3.9,0c-0.6,0.3-1.1,0.6-1.4,1.2
	c-0.3,0.5-0.6,1.1-0.7,1.7C27,28.8,27,30.7,27,30.7v11.8h-7.4V18.7h7.2V22c0.2-0.4,0.5-0.7,0.7-1.1c0.7-0.8,1.4-1.4,2.3-1.9
	c1.6-0.9,3.6-1,5.4-0.8c1.2,0.1,2.4,0.4,3.5,0.9c0.4,0.2,0.8,0.5,1.2,0.9c0.6,0.6,1.2,1.4,1.5,2.2c0.6,1.2,0.9,2.6,1,4
	c0.1,0.5,0.1,1,0.1,1.5V42.5z"/>
</svg>
