<svg width="104" height="104" viewBox="0 0 104 104" fill="none" xmlns="http://www.w3.org/2000/svg">
<path d="M7.96668 77.4226L52 102.845L96.0333 77.4226V26.5774L52 1.1547L7.96668 26.5774V77.4226Z" stroke="white" stroke-width="2"/>
<g clip-path="url(#clip0_594_155)">
<path d="M45.9687 57.8045C43.8192 54.7279 43.7481 51.6092 45.8133 48.4149C45.7023 48.2928 45.5912 48.1552 45.458 48.0287C42.3047 44.8752 39.1537 41.7209 36.0049 38.5659C35.714 38.2729 35.5185 38.2174 35.1166 38.4083C33.4689 39.1963 31.2083 38.6569 30.0669 37.2629C28.7346 35.6424 28.6346 33.4893 29.8027 31.8666C30.8686 30.3816 32.8738 29.6469 34.5037 30.1685C36.4823 30.7878 37.7791 32.4127 37.7392 34.3727C37.7258 35.0187 37.4549 35.6558 37.3239 36.3039C37.2906 36.4682 37.2773 36.7235 37.3728 36.8189C40.6889 40.1486 44.0124 43.47 47.3433 46.7834C47.3566 46.7945 47.3766 46.7989 47.3433 46.7834C48.1005 46.4238 48.8089 46.0287 49.5639 45.7446C50.685 45.3498 51.8857 45.2348 53.0614 45.4094C53.1693 45.4216 53.2786 45.4103 53.3818 45.3762C53.4849 45.3421 53.5794 45.286 53.6587 45.2118C54.8579 43.4582 56.0303 41.6824 57.2117 39.9133C57.2394 39.8578 57.2617 39.7998 57.2783 39.7401C55.946 38.5414 55.2465 37.0764 55.2998 35.2385C55.413 31.4027 59.6433 28.8345 63.0941 30.5303C66.5449 32.2262 67.3199 36.6946 64.5997 39.3894C63.2496 40.7212 61.5797 41.1785 59.6966 40.8811C59.5909 40.8659 59.4832 40.875 59.3816 40.9077C59.2801 40.9404 59.1873 40.9958 59.1103 41.0698C57.9512 42.7612 56.8209 44.4749 55.6462 46.2373C57.7735 47.5359 59.1747 49.345 59.5944 51.8711H64.1267C65.1282 48.3727 67.9617 47.2096 70.4888 47.6225C71.7788 47.8449 72.9452 48.5254 73.7734 49.5388C74.6016 50.5523 75.036 51.8305 74.9966 53.1386C74.9455 55.7623 72.9625 58.0598 70.3999 58.4171C67.6419 58.7989 64.9994 57.3428 64.14 54.1419H59.6255C58.6018 59.7623 52.3952 62.5304 47.6031 59.3339L39.0649 67.5137C39.7326 68.5993 40.031 69.8717 39.9154 71.1408C39.6555 73.9155 37.1907 76.0642 34.3061 75.9998C31.5015 75.9355 29.1121 73.6247 29.0055 70.8722C28.8367 66.486 33.2246 63.7068 37.1152 65.7423C37.3705 65.8755 37.5393 65.9443 37.7813 65.7046C40.4831 63.0971 43.1915 60.4963 45.9066 57.9022C45.9306 57.8718 45.9514 57.8391 45.9687 57.8045ZM51.9777 47.5714C50.8995 47.5754 49.8467 47.8988 48.9524 48.5009C48.0581 49.103 47.3625 49.9567 46.9535 50.9539C46.5445 51.9512 46.4406 53.0473 46.6548 54.1036C46.8691 55.1599 47.3918 56.129 48.157 56.8884C48.9222 57.6477 49.8955 58.1631 50.9538 58.3695C52.0121 58.5759 53.1078 58.464 54.1024 58.0479C55.0971 57.6318 55.9459 56.9302 56.5416 56.0319C57.1374 55.1335 57.4533 54.0787 57.4493 53.0009C57.455 52.283 57.3171 51.5711 57.0436 50.9071C56.7702 50.2432 56.3667 49.6406 55.857 49.1348C55.3472 48.6289 54.7414 48.23 54.0753 47.9616C53.4091 47.6931 52.6959 47.5604 51.9777 47.5714ZM34.4082 73.7956C34.8387 73.8062 35.267 73.7317 35.6685 73.5762C36.0701 73.4207 36.4369 73.1875 36.7479 72.8898C37.0589 72.5921 37.308 72.2359 37.4807 71.8416C37.6535 71.4474 37.7466 71.0229 37.7547 70.5925C37.8191 68.8345 36.3424 67.2984 34.5348 67.2451C33.6671 67.235 32.8304 67.5676 32.2067 68.1707C31.5829 68.7739 31.2226 69.5987 31.2039 70.466C31.1906 70.8962 31.2634 71.3248 31.4181 71.7265C31.5728 72.1282 31.8063 72.4949 32.1049 72.8051C32.4034 73.1153 32.7609 73.3627 33.1565 73.5328C33.5521 73.7029 33.9776 73.7923 34.4082 73.7956ZM57.5026 35.4183C57.5137 37.3317 58.9505 38.7878 60.818 38.7745C61.4624 38.7678 62.0906 38.5716 62.6242 38.2104C63.1578 37.8491 63.5732 37.3389 63.8186 36.7432C64.064 36.1475 64.1285 35.4928 64.0042 34.8607C63.8798 34.2286 63.572 33.6471 63.1192 33.1887C62.6664 32.7303 62.0886 32.4154 61.4579 32.283C60.8272 32.1507 60.1715 32.207 59.5725 32.4447C58.9735 32.6825 58.4579 33.0912 58.0898 33.62C57.7217 34.1488 57.5175 34.7742 57.5026 35.4183ZM69.4939 56.2684C69.9288 56.282 70.362 56.2084 70.7679 56.0521C71.1739 55.8957 71.5445 55.6596 71.8577 55.3579C72.171 55.0561 72.4207 54.6947 72.5921 54.2949C72.7634 53.8952 72.853 53.4652 72.8556 53.0303C72.8581 52.5954 72.7735 52.1644 72.6068 51.7627C72.44 51.361 72.1945 50.9967 71.8848 50.6913C71.575 50.3859 71.2072 50.1456 70.8031 49.9845C70.399 49.8235 69.9667 49.7449 69.5317 49.7534C69.0968 49.7399 68.6636 49.8134 68.2577 49.9698C67.8517 50.1262 67.4811 50.3622 67.1679 50.664C66.8546 50.9658 66.6049 51.3272 66.4335 51.7269C66.2621 52.1267 66.1726 52.5567 66.17 52.9916C66.1675 53.4265 66.2521 53.8575 66.4188 54.2592C66.5856 54.6609 66.831 55.0252 67.1408 55.3305C67.4506 55.6359 67.8184 55.8762 68.2225 56.0373C68.6266 56.1984 69.0589 56.277 69.4939 56.2684ZM31.1994 34.3883C31.1973 34.8199 31.3233 35.2424 31.5615 35.6023C31.7998 35.9622 32.1396 36.2434 32.5379 36.4101C32.9361 36.5767 33.3749 36.6215 33.7987 36.5386C34.2224 36.4558 34.612 36.2491 34.9181 35.9447C35.2242 35.6403 35.4329 35.2519 35.518 34.8287C35.603 34.4056 35.5605 33.9667 35.3958 33.5678C35.2311 33.1688 34.9516 32.8277 34.5927 32.5877C34.2339 32.3477 33.8119 32.2196 33.3801 32.2196C33.094 32.2172 32.8103 32.2716 32.5454 32.3797C32.2805 32.4877 32.0397 32.6472 31.8368 32.8489C31.634 33.0506 31.4733 33.2905 31.3638 33.5547C31.2544 33.819 31.1986 34.1023 31.1994 34.3883Z" fill="white"/>
</g>
<defs>
<clipPath id="clip0_594_155">
<rect width="46" height="46" fill="white" transform="translate(29 30)"/>
</clipPath>
</defs>
</svg>
