<?xml version="1.0" encoding="utf-8"?>
<!-- Generator: Adobe Illustrator 26.3.1, SVG Export Plug-In . SVG Version: 6.00 Build 0)  -->
<svg version="1.1" id="Layer_1" xmlns="http://www.w3.org/2000/svg" xmlns:xlink="http://www.w3.org/1999/xlink" x="0px" y="0px"
	 viewBox="0 0 1910 468" style="enable-background:new 0 0 1910 468;" xml:space="preserve">
<style type="text/css">
	.st0{fill:#333333;}
	.st1{fill:#FFFFFF;}
	.st2{fill:none;stroke:#FFFFFF;stroke-width:7;stroke-miterlimit:10;}
	.st3{fill-rule:evenodd;clip-rule:evenodd;fill:url(#SVGID_1_);}
	.st4{fill:url(#SVGID_00000105385911351687701570000005607923455083196066_);}
	.st5{fill:url(#SVGID_00000144326274339201389320000006874893039888840863_);}
	.st6{fill:url(#SVGID_00000011730468808585497990000015197252599952553135_);}
	.st7{fill:url(#SVGID_00000139267968981229544990000002985556410112768644_);}
</style>
<g>
	<g>
		<path class="st1" d="M534.54,189v15.92h-33.23v17.2h24.87v15.45h-24.87v33h-19.87V189H534.54z"/>
		<path class="st1" d="M564.87,189v81.57H545V189H564.87z"/>
		<path class="st1" d="M620.88,270.57l-16.97-30.79h-4.76v30.79h-19.87V189h33.35c6.43,0,11.91,1.12,16.44,3.37
			c4.53,2.25,7.92,5.33,10.17,9.24c2.25,3.91,3.37,8.27,3.37,13.07c0,5.42-1.53,10.27-4.59,14.53c-3.06,4.26-7.57,7.28-13.54,9.06
			l18.82,32.3H620.88z M599.15,225.72h12.32c3.64,0,6.37-0.89,8.19-2.67c1.82-1.78,2.73-4.3,2.73-7.55c0-3.1-0.91-5.54-2.73-7.32
			c-1.82-1.78-4.55-2.67-8.19-2.67h-12.32V225.72z"/>
		<path class="st1" d="M668.52,268.48c-4.73-1.94-8.5-4.8-11.33-8.6c-2.83-3.79-4.32-8.37-4.47-13.71h21.15
			c0.31,3.02,1.35,5.33,3.14,6.91c1.78,1.59,4.1,2.38,6.97,2.38c2.94,0,5.27-0.68,6.97-2.03c1.7-1.35,2.56-3.23,2.56-5.64
			c0-2.01-0.68-3.68-2.03-5c-1.36-1.32-3.02-2.4-5-3.25c-1.97-0.85-4.78-1.82-8.42-2.91c-5.27-1.63-9.57-3.25-12.9-4.88
			c-3.33-1.63-6.2-4.03-8.6-7.2c-2.4-3.18-3.6-7.32-3.6-12.43c0-7.59,2.75-13.54,8.25-17.84c5.5-4.3,12.67-6.45,21.5-6.45
			c8.99,0,16.23,2.15,21.73,6.45c5.5,4.3,8.44,10.29,8.83,17.95h-21.5c-0.16-2.63-1.12-4.71-2.9-6.22
			c-1.78-1.51-4.07-2.27-6.86-2.27c-2.4,0-4.34,0.64-5.81,1.92c-1.47,1.28-2.21,3.12-2.21,5.52c0,2.63,1.24,4.69,3.72,6.16
			c2.48,1.47,6.35,3.06,11.62,4.76c5.27,1.78,9.55,3.49,12.84,5.11c3.29,1.63,6.14,3.99,8.54,7.09c2.4,3.1,3.6,7.09,3.6,11.97
			c0,4.65-1.18,8.87-3.54,12.67c-2.36,3.8-5.79,6.82-10.28,9.06c-4.49,2.25-9.8,3.37-15.92,3.37
			C678.59,271.38,673.25,270.42,668.52,268.48z"/>
		<path class="st1" d="M785.19,189v15.92h-21.61v65.65h-19.87v-65.65h-21.61V189H785.19z"/>
		<path class="st1" d="M932.07,189l-21.26,81.57h-24.05l-13.01-53.69l-13.48,53.69H836.2L815.52,189h21.26l11.74,59.38L863.04,189
			h21.85l13.94,59.38L910.68,189H932.07z"/>
		<path class="st1" d="M992.84,256.16h-30.44l-4.88,14.41h-20.8L966.23,189h23.01l29.51,81.57h-21.03L992.84,256.16z M987.73,240.82
			l-10.11-29.86l-9.99,29.86H987.73z"/>
		<path class="st1" d="M1104.28,189l-28.93,81.57h-24.87L1021.54,189h21.15l20.22,61.59l20.33-61.59H1104.28z"/>
		<path class="st1" d="M1132.4,204.92v16.5h26.61v15.34h-26.61v17.89h30.1v15.92h-49.97V189h49.97v15.92H1132.4z"/>
		<path class="st1" d="M1225.94,285.38h-5.23V183.47h5.23V285.38z"/>
		<path class="st1" d="M1305.53,230.02l24.63,40.55h-9.06l-20.68-33.93l-19.64,33.93h-9.06l24.52-40.9l-24.52-40.32h9.06
			l20.57,33.81l19.87-33.81h9.06L1305.53,230.02z"/>
	</g>
	<g>
		<path class="st1" d="M358.53,362.62l-1.47-0.02c-5.15-0.09-10.46-0.17-14.99-0.69c-7.96-0.94-14.17-3.28-19.53-7.34
			c-4.61-3.5-8.79-8.43-13.55-15.98l-30.23-48.99c0,0,17.55-28.48,17.55-28.49c0,0,10.05-17.4,10.05-17.4
			c5.39-9.36,5.1-20.8-0.77-29.86c-0.01-0.01-8.21-12.65-8.21-12.65l-1.22-2.02c-0.01-0.02-0.03-0.05-0.05-0.07l-0.12-0.16
			l-17.24-28.02l30.23-48.99c4.74-7.55,8.9-12.48,13.52-15.98c5.36-4.07,11.58-6.4,19.57-7.34c5.1-0.58,11.17-0.66,16.42-0.66h83.39
			c0,0-43.92,73.69-43.92,73.71l-34.59,58.15c-0.16,0.27-0.16,0.6,0,0.87l34.59,58.19l43.93,73.76H358.53z M312.18,210.44
			c6.85,11.05,7.19,24.99,0.9,36.38c-0.02,0.03-0.03,0.06-0.04,0.09l-10.41,18.02l-14.92,24.21c-0.17,0.27-0.17,0.62,0,0.89
			l27.51,44.59c4.28,6.8,7.91,11.13,11.79,14.06c4.27,3.24,9.32,5.11,15.91,5.89c4.19,0.47,9.08,0.55,14.26,0.64l1.42,0.02h68.82
			c0.31,0,0.59-0.16,0.74-0.43c0.15-0.27,0.15-0.59-0.01-0.86l-36.52-61.32l-37.09-62.4c0,0,37.64-63.27,37.64-63.28l35.96-60.34
			c0.16-0.26,0.16-0.59,0.01-0.86c-0.15-0.27-0.43-0.43-0.74-0.43H358.5c-5.05,0-10.85,0.07-15.59,0.61
			c-6.61,0.78-11.67,2.65-15.94,5.89c-3.87,2.94-7.48,7.26-11.72,14.02l-27.54,44.64c-0.17,0.27-0.17,0.62,0,0.89l14.37,23.35
			l0.2,0.27l1.38,2.29l8.49,13.08C312.15,210.39,312.16,210.42,312.18,210.44z"/>
		<path class="st1" d="M70.01,362.62l43.93-73.75l34.64-58.2c0.16-0.27,0.16-0.6,0-0.87l-34.64-58.15L70.01,98h83.34
			c5.23,0,11.27,0.08,16.43,0.66c7.98,0.94,14.2,3.27,19.56,7.34c4.61,3.5,8.78,8.43,13.51,15.97l31.74,51.44
			c0,0,1.94,3.13,1.95,3.14l6.61,10.69l8.71,14.13l0.01,0.04l0.13,0.21l11.06,17.9c1.91,3.21,2.93,6.95,2.93,10.81
			c0,3.82-1.02,7.56-2.94,10.84c0,0-11.05,17.87-11.05,17.88l-8.8,14.27l-6.62,10.71l-1.93,3.11c0,0-31.76,51.47-31.77,51.49
			c-4.73,7.5-8.91,12.43-13.52,15.93c-5.36,4.07-11.57,6.4-19.53,7.34c-4.53,0.51-9.84,0.6-14.98,0.68l-1.47,0.03H70.01z
			 M120.27,292.65l-36.51,61.3c-0.16,0.26-0.16,0.59-0.01,0.86c0.15,0.27,0.43,0.43,0.74,0.43h68.8l1.42-0.02
			c5.19-0.09,10.09-0.17,14.26-0.64c6.6-0.78,11.65-2.66,15.92-5.89c3.85-2.92,7.45-7.21,11.68-13.9l0.33-0.57l0.03-0.04
			c0.03-0.03,0.06-0.07,0.08-0.11l31.35-50.82l2.06-3.32l6.45-10.43c0,0,9.02-14.63,9.03-14.64l10.81-17.49
			c1.24-2.14,1.89-4.57,1.89-7.03c0-2.51-0.64-4.92-1.86-6.99l-11.33-18.34l-0.01-0.03l-8.54-13.85l-8.55-13.83l-31.7-51.38
			c-4.25-6.78-7.86-11.1-11.73-14.04c-4.27-3.24-9.34-5.11-15.97-5.89c-4.76-0.54-10.54-0.61-15.56-0.61H84.51
			c-0.31,0-0.59,0.16-0.74,0.43c-0.15,0.27-0.15,0.59,0.01,0.86l36.5,61.21l37.15,62.36C157.42,230.23,120.27,292.65,120.27,292.65z
			"/>
	</g>
</g>
</svg>
