<?xml version="1.0" encoding="utf-8"?>
<!-- Generator: Adobe Illustrator 26.3.1, SVG Export Plug-In . SVG Version: 6.00 Build 0)  -->
<svg version="1.1" id="Layer_1" xmlns="http://www.w3.org/2000/svg" xmlns:xlink="http://www.w3.org/1999/xlink" x="0px" y="0px"
	 viewBox="0 0 468 468" style="enable-background:new 0 0 468 468;" xml:space="preserve">
<style type="text/css">
	.st0{fill:#333333;}
	.st1{fill:#FFFFFF;}
	.st2{fill:none;stroke:#FFFFFF;stroke-width:7;stroke-miterlimit:10;}
	.st3{fill-rule:evenodd;clip-rule:evenodd;fill:url(#SVGID_1_);}
	.st4{fill:url(#SVGID_00000025421824869126493850000010606862597100478393_);}
	.st5{fill:url(#SVGID_00000033367753570593512220000011327578860479669951_);}
	.st6{fill:url(#SVGID_00000043431525519526596460000010943271875208481469_);}
	.st7{fill:url(#SVGID_00000158008773110875707270000011767802773357502337_);}
</style>
<g>
	<path class="st1" d="M337.53,362.62l-1.47-0.02c-5.15-0.09-10.46-0.17-14.99-0.69c-7.96-0.94-14.17-3.28-19.53-7.34
		c-4.61-3.5-8.79-8.43-13.55-15.98l-30.23-48.99c0,0,17.55-28.48,17.55-28.49c0,0,10.05-17.4,10.05-17.4
		c5.39-9.36,5.1-20.8-0.77-29.86c-0.01-0.01-8.21-12.65-8.21-12.65l-1.22-2.02c-0.01-0.02-0.03-0.05-0.05-0.07l-0.12-0.16
		l-17.24-28.02l30.23-48.99c4.74-7.55,8.9-12.48,13.52-15.98c5.36-4.07,11.58-6.4,19.57-7.34c5.1-0.58,11.17-0.66,16.42-0.66h83.39
		c0,0-43.92,73.69-43.92,73.71l-34.59,58.15c-0.16,0.27-0.16,0.6,0,0.87l34.59,58.19l43.93,73.76H337.53z M291.18,210.44
		c6.85,11.05,7.19,24.99,0.9,36.38c-0.02,0.03-0.03,0.06-0.04,0.09l-10.41,18.02l-14.92,24.21c-0.17,0.27-0.17,0.62,0,0.89
		l27.51,44.59c4.28,6.8,7.91,11.13,11.79,14.06c4.27,3.24,9.32,5.11,15.91,5.89c4.19,0.47,9.08,0.55,14.26,0.64l1.42,0.02h68.82
		c0.31,0,0.59-0.16,0.74-0.43c0.15-0.27,0.15-0.59-0.01-0.86l-36.52-61.32l-37.09-62.4c0,0,37.64-63.27,37.64-63.28l35.96-60.34
		c0.16-0.26,0.16-0.59,0.01-0.86c-0.15-0.27-0.43-0.43-0.74-0.43H337.5c-5.05,0-10.85,0.07-15.59,0.61
		c-6.61,0.78-11.67,2.65-15.94,5.89c-3.87,2.94-7.48,7.26-11.72,14.02l-27.54,44.64c-0.17,0.27-0.17,0.62,0,0.89l14.37,23.35
		l0.2,0.27l1.38,2.29l8.49,13.08C291.15,210.39,291.16,210.42,291.18,210.44z"/>
	<path class="st1" d="M49.01,362.62l43.93-73.75l34.64-58.2c0.16-0.27,0.16-0.6,0-0.87l-34.64-58.15L49.01,98h83.34
		c5.23,0,11.27,0.08,16.43,0.66c7.98,0.94,14.2,3.27,19.56,7.34c4.61,3.5,8.78,8.43,13.51,15.97l31.74,51.44
		c0,0,1.94,3.13,1.95,3.14l6.61,10.69l8.71,14.13l0.01,0.04l0.13,0.21l11.06,17.9c1.91,3.21,2.93,6.95,2.93,10.81
		c0,3.82-1.02,7.56-2.94,10.84c0,0-11.05,17.87-11.05,17.88l-8.8,14.27l-6.62,10.71l-1.93,3.11c0,0-31.76,51.47-31.77,51.49
		c-4.73,7.5-8.91,12.43-13.52,15.93c-5.36,4.07-11.57,6.4-19.53,7.34c-4.53,0.51-9.84,0.6-14.98,0.68l-1.47,0.03H49.01z
		 M99.27,292.65l-36.51,61.3c-0.16,0.26-0.16,0.59-0.01,0.86c0.15,0.27,0.43,0.43,0.74,0.43h68.8l1.42-0.02
		c5.19-0.09,10.09-0.17,14.26-0.64c6.6-0.78,11.65-2.66,15.92-5.89c3.85-2.92,7.45-7.21,11.68-13.9l0.33-0.57l0.03-0.04
		c0.03-0.03,0.06-0.07,0.08-0.11l31.35-50.82l2.06-3.32l6.45-10.43c0,0,9.02-14.63,9.03-14.64l10.81-17.49
		c1.24-2.14,1.89-4.57,1.89-7.03c0-2.51-0.64-4.92-1.86-6.99l-11.33-18.34l-0.01-0.03l-8.54-13.85l-8.55-13.83l-31.7-51.38
		c-4.25-6.78-7.86-11.1-11.73-14.04c-4.27-3.24-9.34-5.11-15.97-5.89c-4.76-0.54-10.54-0.61-15.56-0.61H63.51
		c-0.31,0-0.59,0.16-0.74,0.43c-0.15,0.27-0.15,0.59,0.01,0.86l36.5,61.21l37.15,62.36C136.42,230.23,99.27,292.65,99.27,292.65z"/>
</g>
</svg>
