<?xml version="1.0" encoding="utf-8"?>
<!-- Generator: Adobe Illustrator 26.3.1, SVG Export Plug-In . SVG Version: 6.00 Build 0)  -->
<svg version="1.1" id="Layer_1" xmlns="http://www.w3.org/2000/svg" xmlns:xlink="http://www.w3.org/1999/xlink" x="0px" y="0px"
	 viewBox="0 0 468 468" style="enable-background:new 0 0 468 468;" xml:space="preserve">
<style type="text/css">
	.st0{fill:#333333;}
	.st1{fill:#FFFFFF;}
	.st2{fill:none;stroke:#FFFFFF;stroke-width:7;stroke-miterlimit:10;}
	.st3{fill-rule:evenodd;clip-rule:evenodd;fill:url(#SVGID_1_);}
	.st4{fill:url(#SVGID_00000050635127984841180180000015112380369490423473_);}
	.st5{fill:url(#SVGID_00000065755320625105711330000006289129029529157000_);}
	.st6{fill:url(#SVGID_00000110468606475460315040000001869142877692131458_);}
	.st7{fill:url(#SVGID_00000147214686455971654220000006060722130455649695_);}
</style>
<g>
	<path class="st1" d="M225.21,212.16c0.33-2.81,0.38-5.8,0.38-8.61l0.05-56.12c0-0.38-0.2-0.73-0.54-0.92
		c-0.16-0.09-0.34-0.14-0.53-0.14c-0.19,0-0.37,0.05-0.54,0.15L83.29,230.16c-6.39,3.7-10.62,11.04-11.05,19.17
		c0,0.02-0.01,0.13-0.01,0.15l0.04,27.4c0.01,13.39,0.03,25.46,0.08,37.68c0.06,10.48,0.78,17.3,10.19,23.54l39.83,23.48l2.93,1.69
		c1.55,0.9,3.32,1.37,5.11,1.37c3.64,0,7.03-1.95,8.84-5.09c0.98-1.68,1.46-3.61,1.38-5.39l-0.01-72.15c0.2-4.19,0.2-4.19,2.3-5.59
		l66.4-40.85C216.35,231.18,223.73,224.96,225.21,212.16z M131.59,281.67c0,0.02-0.01,0.12-0.01,0.13l0.01,72.5l0.01,0.24
		c0,0.06-0.05,0.27-0.17,0.48c-0.2,0.34-0.6,0.56-1.04,0.56c-0.2,0-0.39-0.05-0.56-0.15l-2.9-1.67l-39.5-23.28
		c-5.37-3.59-5.97-6.41-6.03-15.98c-0.06-12.19-0.07-24.26-0.08-37.64l-0.05-27.15c0.29-4.99,2.87-9.61,6.59-11.76l128.72-76.5
		l-0.04,42.08c0,2.55-0.04,5.23-0.32,7.58c-0.98,8.48-5.38,12.84-11.67,16.78L138,268.85C132.26,272.67,131.88,275.7,131.59,281.67z
		"/>
	<path class="st1" d="M82.29,211.98c2.13,0,4.24-0.66,5.72-1.76l137.13-82.28c0.32-0.19,0.51-0.54,0.51-0.91l0.06-62.89
		c0-5.94-3.55-8.48-5.07-9.3c-1.39-0.75-2.92-1.14-4.55-1.14c-2.01,0-4.15,0.62-5.84,1.67L87.63,127.08l-0.16,0.1
		c-15.05,9.77-15.22,21.75-15.39,33.36l-0.02,41.23C72.07,207.4,76.65,211.98,82.29,211.98z M216.67,64.15l-0.05,58.37l-133.49,80.1
		l-0.32,0.23c-0.04,0.02-0.26,0.1-0.52,0.1c-0.65,0-1.18-0.53-1.18-1.18l0.02-41.17c0.16-11.24,0.27-18.66,11.16-25.77l122.72-71.76
		c0.29-0.19,0.71-0.31,1.04-0.31c0.15,0,0.25,0.03,0.3,0.05C216.47,62.88,216.67,63.3,216.67,64.15z"/>
	<path class="st1" d="M305.37,272.83c3.03-5.93,3.42-12.58,3.4-18.87l0.11-156.18c0-3.03,0-10.13-6.91-13.84L255.63,57.2
		c-1.47-0.8-3.17-1.23-4.93-1.23c-3.71,0-7.01,1.89-8.84,5.05c-1.38,2.4-1.45,5.15-1.41,8.49l-0.12,159.91l0,0.2
		c0.21,4.32,0.21,4.32-2.38,5.91l-71.93,44.01c-6.94,4.41-10.63,11.03-10.67,19.15l0.04,68.18c-0.25,4.77-0.07,8.21,1.57,11.7
		c1.94,4.13,5.18,6.48,8.42,8.41l43.93,25.3c1.55,0.9,3.32,1.38,5.11,1.38c3.64,0,7.03-1.95,8.83-5.08c0.89-1.53,1.38-3.31,1.4-5.16
		l-0.01-3.32l0.17-24.74c0.11-14.41,0.22-29.32,0.22-43.96c0-4.08,0-4.08,2.42-5.68l62.62-38.51
		C297.84,282.78,302.56,278.34,305.37,272.83z M216,331.4c0,14.75-0.11,29.65-0.22,44.07l-0.17,24.62l0.01,3.31
		c0,0.25-0.06,0.46-0.17,0.65c-0.2,0.34-0.6,0.57-1.03,0.57c-0.2,0-0.4-0.05-0.57-0.15l-43.88-25.27c-2.79-1.67-4.05-2.84-4.81-4.46
		c-0.76-1.62-0.94-3.43-0.72-7.47c0-0.02,0.01-0.13,0.01-0.15l-0.04-68.39c0.03-5.01,2.13-8.77,6.41-11.5l71.86-43.97
		c6.46-3.95,7.02-7.45,6.7-13.93l0.12-159.86c-0.01-0.84-0.04-3.39,0.21-3.91c0.26-0.46,0.77-0.52,1.05-0.52
		c0.25,0,0.43,0.06,0.46,0.07l46.43,26.79c1.99,1.06,2.2,2.69,2.2,5.9l-0.11,156.2c0.05,12.97-1.99,18.45-14.21,25.42l-62.98,38.73
		C216.81,321.93,216,324.37,216,331.4z"/>
	<path class="st1" d="M395.91,163.17c-0.61-20.13-3.66-27.66-22.73-38.71l-31.91-18.47c-1.6-0.93-3.42-1.42-5.24-1.42
		c-1.95,0-3.84,0.55-5.47,1.6c-3.12,1.98-4.89,5.44-4.63,8.96l-0.09,166.48l0.01,0.2c0.22,4.31,0.22,4.31-2.38,5.9l-71.83,43.96
		c-7.34,4.49-10.55,10.21-10.76,19.22l0.46,52c-0.11,4.28,1.83,8.01,5.19,9.99c1.09,0.65,2.9,1.41,5.27,1.41
		c2.21,0,4.45-0.67,6.65-1.99l125.94-76.14l0.94-0.69c5.88-5.1,9.14-11.34,9.98-19.04c0.09-0.65,0.2-2.02,0.6-11.51l0.03-0.81
		C395.93,304.11,395.91,163.17,395.91,163.17z M379.59,328.49l-0.07,0.05l-125.73,76.01c-0.75,0.45-1.44,0.69-1.98,0.69
		c-0.33,0-0.55-0.09-0.68-0.16c-0.49-0.29-0.77-1.05-0.74-1.99c0-0.02,0-0.1,0-0.12l-0.46-52.03c0.14-5.87,1.71-8.68,6.44-11.58
		l71.83-43.95c6.47-3.95,7.02-7.45,6.7-13.92l0.09-166.56l-0.02-0.39c-0.02-0.26,0.16-0.57,0.47-0.76c0.17-0.11,0.38-0.17,0.6-0.17
		c0.24,0,0.48,0.07,0.7,0.2l31.91,18.47c16.07,9.32,17.7,13.89,18.22,31.08l0.02,140.58l-0.02,0.62
		c-0.28,6.54-0.46,10.16-0.54,10.79C385.75,320.71,383.52,325.03,379.59,328.49z"/>
</g>
</svg>
