<?xml version="1.0" encoding="utf-8"?>
<!-- Generator: Adobe Illustrator 26.3.1, SVG Export Plug-In . SVG Version: 6.00 Build 0)  -->
<svg version="1.1" id="Layer_1" xmlns="http://www.w3.org/2000/svg" xmlns:xlink="http://www.w3.org/1999/xlink" x="0px" y="0px"
	 viewBox="0 0 1910 468" style="enable-background:new 0 0 1910 468;" xml:space="preserve">
<style type="text/css">
	.st0{fill:#333333;}
	.st1{fill:#FFFFFF;}
	.st2{fill:none;stroke:#FFFFFF;stroke-width:7;stroke-miterlimit:10;}
	.st3{fill-rule:evenodd;clip-rule:evenodd;fill:url(#SVGID_1_);}
	.st4{fill:url(#SVGID_00000003094069363953367600000005300083610066283173_);}
	.st5{fill:url(#SVGID_00000047764428464745078890000001334204954669248661_);}
	.st6{fill:url(#SVGID_00000138549456110181767640000005695907718613043343_);}
	.st7{fill:url(#SVGID_00000074426876725490852230000011763494764328711827_);}
</style>
<g>
	<g>
		<path class="st1" d="M247.16,208.44c0.33-2.81,0.38-5.8,0.38-8.61l0.05-56.12c0-0.38-0.2-0.73-0.54-0.92
			c-0.16-0.09-0.34-0.14-0.53-0.14c-0.19,0-0.37,0.05-0.54,0.15l-140.74,83.65c-6.39,3.7-10.62,11.04-11.05,19.17
			c0,0.02-0.01,0.13-0.01,0.15l0.04,27.4c0.01,13.39,0.03,25.46,0.08,37.68c0.06,10.48,0.78,17.3,10.19,23.54l39.83,23.48l2.93,1.69
			c1.55,0.9,3.32,1.37,5.11,1.37c3.64,0,7.03-1.95,8.84-5.09c0.98-1.68,1.46-3.61,1.38-5.39l-0.01-72.15c0.2-4.19,0.2-4.19,2.3-5.59
			l66.4-40.85C238.3,227.46,245.68,221.24,247.16,208.44z M153.55,277.95c0,0.02-0.01,0.12-0.01,0.13l0.01,72.5l0.01,0.24
			c0,0.06-0.05,0.27-0.17,0.48c-0.2,0.34-0.6,0.56-1.04,0.56c-0.2,0-0.39-0.05-0.56-0.15l-2.9-1.67l-39.5-23.28
			c-5.37-3.59-5.97-6.41-6.03-15.98c-0.06-12.19-0.07-24.26-0.08-37.64L103.23,246c0.29-4.99,2.87-9.61,6.59-11.76l128.72-76.5
			l-0.04,42.08c0,2.55-0.04,5.23-0.32,7.58c-0.98,8.48-5.38,12.84-11.67,16.78l-66.56,40.95
			C154.22,268.95,153.83,271.99,153.55,277.95z"/>
		<path class="st1" d="M104.24,208.27c2.13,0,4.24-0.66,5.72-1.76l137.13-82.28c0.32-0.19,0.51-0.54,0.51-0.91l0.06-62.89
			c0-5.94-3.55-8.48-5.07-9.3c-1.39-0.75-2.92-1.14-4.55-1.14c-2.01,0-4.15,0.62-5.84,1.67l-122.62,71.69l-0.16,0.1
			c-15.05,9.77-15.22,21.75-15.39,33.36l-0.02,41.23C94.02,203.68,98.6,208.27,104.24,208.27z M238.62,60.43l-0.05,58.37
			l-133.49,80.1l-0.32,0.23c-0.04,0.02-0.26,0.1-0.52,0.1c-0.65,0-1.18-0.53-1.18-1.18l0.02-41.17
			c0.16-11.24,0.27-18.66,11.16-25.77l122.72-71.76c0.29-0.19,0.71-0.31,1.04-0.31c0.15,0,0.25,0.03,0.3,0.05
			C238.42,59.16,238.62,59.58,238.62,60.43z"/>
		<path class="st1" d="M327.33,269.12c3.03-5.93,3.42-12.58,3.4-18.87l0.11-156.18c0-3.03,0-10.13-6.91-13.84l-46.34-26.74
			c-1.47-0.8-3.17-1.23-4.93-1.23c-3.71,0-7.01,1.89-8.84,5.05c-1.38,2.4-1.45,5.15-1.41,8.49l-0.12,159.91l0,0.2
			c0.21,4.32,0.21,4.32-2.38,5.91l-71.93,44.01c-6.94,4.41-10.63,11.03-10.67,19.15l0.04,68.18c-0.25,4.77-0.07,8.21,1.57,11.7
			c1.94,4.13,5.18,6.48,8.42,8.41l43.93,25.3c1.55,0.9,3.32,1.38,5.11,1.38c3.64,0,7.03-1.95,8.83-5.08
			c0.89-1.53,1.38-3.31,1.4-5.16l-0.01-3.32l0.17-24.74c0.11-14.41,0.22-29.32,0.22-43.96c0-4.08,0-4.08,2.42-5.68l62.62-38.51
			C319.79,279.06,324.51,274.63,327.33,269.12z M237.95,327.68c0,14.75-0.11,29.65-0.22,44.07l-0.17,24.62l0.01,3.31
			c0,0.25-0.06,0.46-0.17,0.65c-0.2,0.34-0.6,0.57-1.03,0.57c-0.2,0-0.4-0.05-0.57-0.15l-43.88-25.27
			c-2.79-1.67-4.05-2.84-4.81-4.46c-0.76-1.62-0.94-3.43-0.72-7.47c0-0.02,0.01-0.13,0.01-0.15L186.35,295
			c0.03-5.01,2.13-8.77,6.41-11.5l71.86-43.97c6.46-3.95,7.02-7.45,6.7-13.93l0.12-159.86c-0.01-0.84-0.04-3.39,0.21-3.91
			c0.26-0.46,0.77-0.52,1.05-0.52c0.25,0,0.43,0.06,0.46,0.07l46.43,26.79c1.99,1.06,2.2,2.69,2.2,5.9l-0.11,156.2
			c0.05,12.97-1.99,18.45-14.21,25.42l-62.98,38.73C238.76,318.21,237.95,320.65,237.95,327.68z"/>
		<path class="st1" d="M417.86,159.45c-0.61-20.13-3.66-27.66-22.73-38.71l-31.91-18.47c-1.6-0.93-3.42-1.42-5.24-1.42
			c-1.95,0-3.84,0.55-5.47,1.6c-3.12,1.98-4.89,5.44-4.63,8.96l-0.09,166.48l0.01,0.2c0.22,4.31,0.22,4.31-2.38,5.9l-71.83,43.96
			c-7.34,4.49-10.55,10.21-10.76,19.22l0.46,52c-0.11,4.28,1.83,8.01,5.19,9.99c1.09,0.65,2.9,1.41,5.27,1.41
			c2.21,0,4.45-0.67,6.65-1.99l125.94-76.14l0.94-0.69c5.88-5.1,9.14-11.34,9.98-19.04c0.09-0.65,0.2-2.02,0.6-11.51l0.03-0.81
			C417.89,300.4,417.86,159.45,417.86,159.45z M401.54,324.77l-0.07,0.05l-125.73,76.01c-0.75,0.45-1.44,0.69-1.98,0.69
			c-0.33,0-0.55-0.09-0.68-0.16c-0.49-0.29-0.77-1.05-0.74-1.99c0-0.02,0-0.1,0-0.12l-0.46-52.03c0.14-5.87,1.71-8.68,6.44-11.58
			l71.83-43.95c6.47-3.95,7.02-7.45,6.7-13.92l0.09-166.56l-0.02-0.39c-0.02-0.26,0.16-0.57,0.47-0.76c0.17-0.11,0.38-0.17,0.6-0.17
			c0.24,0,0.48,0.07,0.7,0.2l31.91,18.47c16.07,9.32,17.7,13.89,18.22,31.08l0.02,140.58l-0.02,0.62
			c-0.28,6.54-0.46,10.16-0.54,10.79C407.7,316.99,405.47,321.31,401.54,324.77z"/>
	</g>
	<g>
		<path class="st1" d="M533.54,189v15.92h-33.23v17.2h24.87v15.45h-24.87v33h-19.87V189H533.54z"/>
		<path class="st1" d="M563.87,189v81.57H544V189H563.87z"/>
		<path class="st1" d="M619.88,270.57l-16.97-30.79h-4.76v30.79h-19.87V189h33.35c6.43,0,11.91,1.12,16.44,3.37
			c4.53,2.25,7.92,5.33,10.17,9.24c2.25,3.91,3.37,8.27,3.37,13.07c0,5.42-1.53,10.27-4.59,14.53c-3.06,4.26-7.57,7.28-13.54,9.06
			l18.82,32.3H619.88z M598.15,225.72h12.32c3.64,0,6.37-0.89,8.19-2.67c1.82-1.78,2.73-4.3,2.73-7.55c0-3.1-0.91-5.54-2.73-7.32
			c-1.82-1.78-4.55-2.67-8.19-2.67h-12.32V225.72z"/>
		<path class="st1" d="M667.52,268.48c-4.73-1.94-8.5-4.8-11.33-8.6c-2.83-3.79-4.32-8.37-4.47-13.71h21.15
			c0.31,3.02,1.35,5.33,3.14,6.91c1.78,1.59,4.1,2.38,6.97,2.38c2.94,0,5.27-0.68,6.97-2.03c1.7-1.35,2.56-3.23,2.56-5.64
			c0-2.01-0.68-3.68-2.03-5c-1.36-1.32-3.02-2.4-5-3.25c-1.97-0.85-4.78-1.82-8.42-2.91c-5.27-1.63-9.57-3.25-12.9-4.88
			c-3.33-1.63-6.2-4.03-8.6-7.2c-2.4-3.18-3.6-7.32-3.6-12.43c0-7.59,2.75-13.54,8.25-17.84c5.5-4.3,12.67-6.45,21.5-6.45
			c8.99,0,16.23,2.15,21.73,6.45c5.5,4.3,8.44,10.29,8.83,17.95h-21.5c-0.16-2.63-1.12-4.71-2.9-6.22
			c-1.78-1.51-4.07-2.27-6.86-2.27c-2.4,0-4.34,0.64-5.81,1.92c-1.47,1.28-2.21,3.12-2.21,5.52c0,2.63,1.24,4.69,3.72,6.16
			c2.48,1.47,6.35,3.06,11.62,4.76c5.27,1.78,9.55,3.49,12.84,5.11c3.29,1.63,6.14,3.99,8.54,7.09c2.4,3.1,3.6,7.09,3.6,11.97
			c0,4.65-1.18,8.87-3.54,12.67c-2.36,3.8-5.79,6.82-10.28,9.06c-4.49,2.25-9.8,3.37-15.92,3.37
			C677.59,271.38,672.25,270.42,667.52,268.48z"/>
		<path class="st1" d="M784.19,189v15.92h-21.61v65.65h-19.87v-65.65h-21.61V189H784.19z"/>
		<path class="st1" d="M931.07,189l-21.26,81.57h-24.05l-13.01-53.69l-13.48,53.69H835.2L814.52,189h21.26l11.74,59.38L862.04,189
			h21.85l13.94,59.38L909.68,189H931.07z"/>
		<path class="st1" d="M991.84,256.16h-30.44l-4.88,14.41h-20.8L965.23,189h23.01l29.51,81.57h-21.03L991.84,256.16z M986.73,240.82
			l-10.11-29.86l-9.99,29.86H986.73z"/>
		<path class="st1" d="M1103.28,189l-28.93,81.57h-24.87L1020.54,189h21.15l20.22,61.59l20.33-61.59H1103.28z"/>
		<path class="st1" d="M1131.4,204.92v16.5h26.61v15.34h-26.61v17.89h30.1v15.92h-49.97V189h49.97v15.92H1131.4z"/>
	</g>
</g>
</svg>
