<?xml version="1.0" encoding="utf-8"?>
<!-- Generator: Adobe Illustrator 26.3.1, SVG Export Plug-In . SVG Version: 6.00 Build 0)  -->
<svg version="1.1" id="Layer_1" xmlns="http://www.w3.org/2000/svg" xmlns:xlink="http://www.w3.org/1999/xlink" x="0px" y="0px"
	 viewBox="0 0 468 468" style="enable-background:new 0 0 468 468;" xml:space="preserve">
<style type="text/css">
	.st0{fill:#333333;}
	.st1{fill:#FFFFFF;}
	.st2{fill:none;stroke:#FFFFFF;stroke-width:7;stroke-miterlimit:10;}
	.st3{fill-rule:evenodd;clip-rule:evenodd;fill:url(#SVGID_1_);}
	.st4{fill:url(#SVGID_00000152229596905261892690000014640343052119640208_);}
	.st5{fill:url(#SVGID_00000152948898971021270480000009052565269999228588_);}
	.st6{fill:url(#SVGID_00000108284213965977348560000014896871332482995373_);}
	.st7{fill:url(#SVGID_00000080198963579178482520000003997861967289812610_);}
</style>
<g>
	<g>
		<path class="st1" d="M349.68,81.55c7.58,0,13.96,2.38,20.69,7.71l0.03,0.02l0.03,0.02c1.06,0.82,2.07,1.7,3.1,2.67
			c0.23,0.24,0.52,0.57,0.8,0.88l0.38,0.43l0.43,0.38c0.33,0.29,0.65,0.57,0.88,0.8c0.98,1.03,1.85,2.04,2.68,3.1l0.02,0.03
			l0.02,0.03c8.97,11.32,8.96,20.96,5.8,34.76l-9.93,41.49l-16.88,70.78l-15.43,60.78l-18.53,72.87l-51.41-51.46
			c-3.69-3.75-7.53-7.71-10.37-11.28c-8.98-11.32-8.96-20.96-5.8-34.77l13.39-56.4l0.81-3.41l0.95-4.12l1.83-7.68l0.46-1.95
			l0.81-3.41l3.54-14.94l-0.04,0.01l24.46-97.51l33.22-7.97C341.3,82.16,345.77,81.55,349.68,81.55 M349.68,73
			c-5.07,0-10.34,0.83-16.02,2.14l-38.29,9.18l-29.51,117.65l0.26-0.09l-0.81,3.41l-0.46,1.96l-2.8,11.75l0.03,0.03l-0.81,3.41
			l-13.4,56.43c-3.58,15.59-3.61,28.1,7.42,42.02c3.15,3.96,7.16,8.09,11,11.99L328.35,395l22.24-87.45l15.45-60.85l16.89-70.84
			l9.93-41.53c3.58-15.59,3.61-28.1-7.42-42.02c-1.01-1.3-2.11-2.57-3.32-3.84c-0.43-0.43-0.89-0.84-1.36-1.24
			c-0.4-0.46-0.81-0.92-1.24-1.36c-1.27-1.21-2.54-2.31-3.84-3.32C366.83,75.54,358.55,73,349.68,73L349.68,73z"/>
		<path class="st1" d="M252.28,103.36l-24.82,98.89l-40.29,9.56c-5.69,1.3-10.16,1.91-14.08,1.91c-7.58,0-13.96-2.38-20.68-7.7
			c-3.58-2.85-7.54-6.69-11.28-10.38l-51.46-51.41l72.87-18.53l60.79-15.43L252.28,103.36 M264.01,91.77l-42.71,10.19l-60.85,15.45
			L73,139.65l62.12,62.06c3.9,3.84,8.03,7.85,11.98,11c8.85,7.02,17.13,9.56,26,9.56c5.08,0,10.34-0.83,16.02-2.14l45.37-10.77
			L264.01,91.77L264.01,91.77z"/>
	</g>
</g>
</svg>
