<?xml version="1.0" encoding="utf-8"?>
<!-- Generator: Adobe Illustrator 26.3.1, SVG Export Plug-In . SVG Version: 6.00 Build 0)  -->
<svg version="1.1" id="Layer_1" xmlns="http://www.w3.org/2000/svg" xmlns:xlink="http://www.w3.org/1999/xlink" x="0px" y="0px"
	 viewBox="0 0 1910 468" style="enable-background:new 0 0 1910 468;" xml:space="preserve">
<style type="text/css">
	.st0{fill:#333333;}
	.st1{fill:#FFFFFF;}
	.st2{fill:none;stroke:#FFFFFF;stroke-width:7;stroke-miterlimit:10;}
	.st3{fill-rule:evenodd;clip-rule:evenodd;fill:url(#SVGID_1_);}
	.st4{fill:url(#SVGID_00000060747401742847031820000003588034378392892845_);}
	.st5{fill:url(#SVGID_00000043443533037401694020000018224472721229512628_);}
	.st6{fill:url(#SVGID_00000045592566956810081720000008098221454104806065_);}
	.st7{fill:url(#SVGID_00000178170399672830731210000005067041664740739996_);}
</style>
<g>
	<g>
		<path class="st1" d="M533.53,189v15.92H500.3v17.2h24.87v15.45H500.3v33h-19.87V189H533.53z"/>
		<path class="st1" d="M563.86,189v81.57h-19.87V189H563.86z"/>
		<path class="st1" d="M619.87,270.57l-16.96-30.79h-4.76v30.79h-19.87V189h33.35c6.43,0,11.91,1.12,16.44,3.37
			c4.53,2.25,7.92,5.33,10.17,9.24c2.24,3.91,3.37,8.27,3.37,13.07c0,5.42-1.53,10.27-4.59,14.53c-3.06,4.26-7.57,7.28-13.54,9.06
			l18.82,32.3H619.87z M598.14,225.72h12.32c3.64,0,6.37-0.89,8.19-2.67c1.82-1.78,2.73-4.3,2.73-7.55c0-3.1-0.91-5.54-2.73-7.32
			c-1.82-1.78-4.55-2.67-8.19-2.67h-12.32V225.72z"/>
		<path class="st1" d="M667.51,268.48c-4.73-1.94-8.5-4.8-11.33-8.6c-2.83-3.79-4.32-8.37-4.47-13.71h21.15
			c0.31,3.02,1.35,5.33,3.14,6.91c1.78,1.59,4.11,2.38,6.97,2.38c2.94,0,5.27-0.68,6.97-2.03c1.7-1.35,2.55-3.23,2.55-5.64
			c0-2.01-0.68-3.68-2.03-5c-1.36-1.32-3.02-2.4-5-3.25c-1.97-0.85-4.79-1.82-8.42-2.91c-5.27-1.63-9.57-3.25-12.9-4.88
			c-3.33-1.63-6.2-4.03-8.6-7.2c-2.4-3.18-3.6-7.32-3.6-12.43c0-7.59,2.75-13.54,8.25-17.84c5.5-4.3,12.67-6.45,21.5-6.45
			c8.99,0,16.23,2.15,21.73,6.45c5.5,4.3,8.44,10.29,8.83,17.95h-21.5c-0.16-2.63-1.12-4.71-2.9-6.22
			c-1.78-1.51-4.07-2.27-6.86-2.27c-2.4,0-4.34,0.64-5.81,1.92c-1.47,1.28-2.21,3.12-2.21,5.52c0,2.63,1.24,4.69,3.72,6.16
			c2.48,1.47,6.35,3.06,11.62,4.76c5.27,1.78,9.54,3.49,12.84,5.11c3.29,1.63,6.14,3.99,8.54,7.09c2.4,3.1,3.6,7.09,3.6,11.97
			c0,4.65-1.18,8.87-3.54,12.67c-2.36,3.8-5.79,6.82-10.28,9.06c-4.49,2.25-9.8,3.37-15.92,3.37
			C677.58,271.38,672.23,270.42,667.51,268.48z"/>
		<path class="st1" d="M784.17,189v15.92h-21.61v65.65h-19.87v-65.65h-21.61V189H784.17z"/>
		<path class="st1" d="M931.05,189l-21.26,81.57h-24.05l-13.01-53.69l-13.48,53.69h-24.05L814.5,189h21.26l11.74,59.38L862.03,189
			h21.85l13.95,59.38L909.67,189H931.05z"/>
		<path class="st1" d="M991.82,256.16h-30.45l-4.88,14.41h-20.8L965.21,189h23.01l29.51,81.57H996.7L991.82,256.16z M986.71,240.82
			l-10.11-29.86l-9.99,29.86H986.71z"/>
		<path class="st1" d="M1103.26,189l-28.93,81.57h-24.87L1020.52,189h21.15l20.22,61.59l20.33-61.59H1103.26z"/>
		<path class="st1" d="M1131.38,204.92v16.5h26.61v15.34h-26.61v17.89h30.1v15.92h-49.97V189h49.97v15.92H1131.38z"/>
		<path class="st1" d="M1224.92,285.38h-5.23V183.47h5.23V285.38z"/>
		<path class="st1" d="M1339.61,189.35l-30.79,81.22h-9.3l-30.79-81.22h8.83l26.61,72.39l26.84-72.39H1339.61z"/>
		<path class="st1" d="M1359.94,195.97v30.33h30.79v6.74h-30.79v30.79h34.28v6.74h-42.41v-81.34h42.41v6.74H1359.94z"/>
		<path class="st1" d="M1471.5,270.57h-8.13l-44.97-68.33v68.33h-8.13v-81.22h8.13l44.97,68.21v-68.21h8.13V270.57z"/>
		<path class="st1" d="M1537.5,189.35v6.74h-22.54v74.49h-8.13v-74.49h-22.66v-6.74H1537.5z"/>
		<path class="st1" d="M1558.18,189.35v51.13c0,8.06,1.92,14.02,5.75,17.89c3.83,3.88,9.08,5.81,15.74,5.81s11.87-1.92,15.63-5.75
			c3.76-3.83,5.64-9.82,5.64-17.95v-51.13h8.13v51.01c0,10.3-2.73,18.05-8.19,23.24c-5.46,5.19-12.57,7.79-21.32,7.79
			c-8.76,0-15.86-2.59-21.32-7.79c-5.46-5.19-8.19-12.94-8.19-23.24v-51.01H1558.18z"/>
		<path class="st1" d="M1670.43,270.57l-20.1-33.93h-14.99v33.93h-8.13v-81.22h24.4c9.06,0,15.94,2.17,20.63,6.51
			c4.69,4.34,7.03,10.03,7.03,17.08c0,5.89-1.68,10.91-5.05,15.05c-3.37,4.14-8.35,6.84-14.93,8.08l20.92,34.51H1670.43z
			 M1635.34,230.02h16.38c6.35,0,11.13-1.55,14.35-4.65c3.21-3.1,4.82-7.24,4.82-12.43c0-5.34-1.55-9.47-4.65-12.38
			c-3.1-2.9-7.98-4.36-14.64-4.36h-16.27V230.02z"/>
		<path class="st1" d="M1703.55,195.97v30.33h30.79v6.74h-30.79v30.79h34.28v6.74h-42.41v-81.34h42.41v6.74H1703.55z"/>
		<path class="st1" d="M1764.38,268.6c-4.07-1.86-7.26-4.45-9.59-7.79c-2.32-3.33-3.56-7.05-3.72-11.16h8.6
			c0.39,3.95,2.13,7.42,5.23,10.4c3.1,2.98,7.63,4.47,13.6,4.47c5.5,0,9.86-1.41,13.07-4.24s4.82-6.41,4.82-10.75
			c0-3.49-0.89-6.29-2.67-8.42c-1.78-2.13-3.99-3.72-6.62-4.76c-2.63-1.05-6.28-2.19-10.92-3.43c-5.42-1.47-9.72-2.91-12.9-4.3
			c-3.18-1.39-5.89-3.56-8.13-6.51c-2.25-2.94-3.37-6.93-3.37-11.97c0-4.18,1.08-7.92,3.25-11.21c2.17-3.29,5.23-5.87,9.18-7.73
			s8.48-2.79,13.6-2.79c7.51,0,13.58,1.84,18.19,5.52c4.61,3.68,7.26,8.42,7.96,14.23h-8.83c-0.54-3.33-2.37-6.29-5.46-8.89
			s-7.28-3.89-12.55-3.89c-4.88,0-8.95,1.3-12.2,3.89s-4.88,6.14-4.88,10.63c0,3.41,0.89,6.16,2.67,8.25
			c1.78,2.09,4.01,3.68,6.68,4.76c2.67,1.09,6.29,2.25,10.87,3.49c5.27,1.47,9.53,2.92,12.78,4.36c3.25,1.43,6,3.62,8.25,6.56
			c2.25,2.95,3.37,6.9,3.37,11.85c0,3.8-1.01,7.4-3.02,10.81c-2.01,3.41-5,6.16-8.95,8.25s-8.68,3.14-14.18,3.14
			C1773.15,271.38,1768.45,270.46,1764.38,268.6z"/>
	</g>
	<g>
		<g>
			<path class="st1" d="M371.63,77.83c7.58,0,13.96,2.38,20.69,7.71l0.03,0.02l0.03,0.02c1.06,0.82,2.07,1.7,3.1,2.67
				c0.23,0.24,0.52,0.57,0.8,0.88l0.38,0.43l0.43,0.38c0.33,0.29,0.65,0.57,0.88,0.8c0.98,1.03,1.85,2.04,2.68,3.1l0.02,0.03
				l0.02,0.03c8.97,11.32,8.96,20.96,5.8,34.76l-9.93,41.49l-16.88,70.78l-15.43,60.78l-18.53,72.87l-51.41-51.46
				c-3.69-3.75-7.53-7.71-10.37-11.28c-8.98-11.32-8.96-20.96-5.8-34.77l13.39-56.4l0.81-3.41l0.95-4.12l1.83-7.68l0.46-1.95
				l0.81-3.41l3.54-14.94l-0.04,0.01l24.46-97.51l33.22-7.97C363.25,78.44,367.72,77.83,371.63,77.83 M371.63,69.28
				c-5.07,0-10.34,0.83-16.02,2.14l-38.29,9.18l-29.51,117.65l0.26-0.09l-0.81,3.41l-0.46,1.96l-2.8,11.75l0.03,0.03l-0.81,3.41
				l-13.4,56.43c-3.58,15.59-3.61,28.1,7.42,42.02c3.15,3.96,7.16,8.09,11,11.99l62.06,62.12l22.24-87.45l15.45-60.85l16.89-70.84
				l9.93-41.53c3.58-15.59,3.61-28.1-7.42-42.02c-1.01-1.3-2.11-2.57-3.32-3.84c-0.43-0.43-0.89-0.84-1.36-1.24
				c-0.4-0.46-0.81-0.92-1.24-1.36c-1.27-1.21-2.54-2.31-3.84-3.32C388.78,71.82,380.5,69.28,371.63,69.28L371.63,69.28z"/>
			<path class="st1" d="M274.24,99.64l-24.82,98.89l-40.29,9.56c-5.69,1.3-10.16,1.91-14.08,1.91c-7.58,0-13.96-2.38-20.68-7.7
				c-3.58-2.85-7.54-6.69-11.28-10.38l-51.46-51.41l72.87-18.53l60.79-15.43L274.24,99.64 M285.96,88.05l-42.71,10.19L182.4,113.7
				l-87.45,22.24L157.07,198c3.9,3.84,8.03,7.85,11.98,11c8.85,7.02,17.13,9.56,26,9.56c5.08,0,10.34-0.83,16.02-2.14l45.37-10.77
				L285.96,88.05L285.96,88.05z"/>
		</g>
	</g>
</g>
</svg>
