<?xml version="1.0" encoding="utf-8"?>
<!-- Generator: Adobe Illustrator 25.2.3, SVG Export Plug-In . SVG Version: 6.00 Build 0)  -->
<svg version="1.1" id="Layer_1" xmlns="http://www.w3.org/2000/svg" xmlns:xlink="http://www.w3.org/1999/xlink" x="0px" y="0px"
	 viewBox="0 0 50 50" style="enable-background:new 0 0 50 50;" xml:space="preserve">
<style type="text/css">
	.st0{fill:#FFFFFF;}
</style>
<g>
	<path class="st0" d="M24.216,10.522v4.172c0,0.433,0.35,0.783,0.783,0.783c0.433,0,0.783-0.35,0.783-0.783v-4.172
		c1.112-0.339,1.929-1.362,1.929-2.583c0-1.495-1.217-2.711-2.712-2.711c-1.495,0-2.711,1.216-2.711,2.711
		C22.288,9.16,23.105,10.184,24.216,10.522z M25,6.794c0.632,0,1.146,0.514,1.146,1.145c0,0.632-0.514,1.146-1.146,1.146
		c-0.631,0-1.145-0.514-1.145-1.146C23.855,7.308,24.369,6.794,25,6.794z"/>
	<path class="st0" d="M39.478,19.996c-1.221,0-2.244,0.816-2.582,1.928h-4.172c-0.433,0-0.783,0.35-0.783,0.783
		c0,0.433,0.35,0.783,0.783,0.783h4.172c0.338,1.112,1.361,1.929,2.582,1.929c1.495,0,2.712-1.217,2.712-2.712
		C42.19,21.212,40.973,19.996,39.478,19.996z M39.478,23.852c-0.631,0-1.145-0.514-1.145-1.146c0-0.631,0.514-1.145,1.145-1.145
		c0.632,0,1.146,0.514,1.146,1.145C40.624,23.338,40.11,23.852,39.478,23.852z"/>
	<path class="st0" d="M30.576,17.866c0.2,0,0.401-0.076,0.554-0.229l2.949-2.949c0.389,0.209,0.82,0.331,1.273,0.331
		c0.725,0,1.406-0.282,1.917-0.795c1.058-1.058,1.057-2.778,0-3.835c-1.024-1.025-2.811-1.026-3.835,0
		c-0.862,0.864-1.008,2.164-0.462,3.189l-2.95,2.95c-0.306,0.306-0.306,0.802,0,1.107C30.175,17.79,30.375,17.866,30.576,17.866z
		 M34.542,11.497c0.216-0.216,0.504-0.336,0.81-0.336s0.593,0.119,0.81,0.336c0.447,0.447,0.447,1.173,0,1.62
		c-0.433,0.433-1.187,0.433-1.62,0C34.096,12.67,34.096,11.944,34.542,11.497z"/>
	<path class="st0" d="M17.276,23.49c0.433,0,0.783-0.35,0.783-0.783c0-0.433-0.35-0.783-0.783-0.783h-4.172
		c-0.339-1.112-1.362-1.928-2.583-1.928c-1.495,0-2.711,1.216-2.711,2.711c0,1.495,1.216,2.712,2.711,2.712
		c1.221,0,2.244-0.817,2.583-1.929H17.276z M10.521,23.852c-0.631,0-1.145-0.514-1.145-1.146c0-0.631,0.514-1.145,1.145-1.145
		c0.632,0,1.146,0.514,1.146,1.145C11.667,23.338,11.153,23.852,10.521,23.852z"/>
	<path class="st0" d="M14.647,15.019c0.454,0,0.885-0.122,1.274-0.331l2.949,2.949c0.153,0.153,0.353,0.229,0.554,0.229
		s0.401-0.076,0.554-0.229c0.306-0.306,0.306-0.802,0-1.107l-2.95-2.95c0.547-1.026,0.401-2.327-0.462-3.19
		c-1.023-1.025-2.81-1.026-3.835,0c-1.056,1.058-1.056,2.777,0,3.835C13.242,14.737,13.923,15.019,14.647,15.019z M13.837,11.497
		c0.433-0.433,1.187-0.433,1.62,0c0.447,0.447,0.447,1.173,0,1.62c-0.433,0.433-1.187,0.433-1.62,0
		C13.392,12.67,13.392,11.944,13.837,11.497z"/>
	<path class="st0" d="M37.275,31.093c-0.574,0-1.108,0.174-1.554,0.471c-0.462-0.925-1.408-1.567-2.51-1.567
		c-0.513,0-0.987,0.148-1.401,0.388c-0.37-1.124-1.417-1.942-2.663-1.942c-0.451,0-0.871,0.116-1.249,0.305v-5.556
		c0-1.553-1.263-2.815-2.815-2.815c-1.553,0-2.815,1.263-2.815,2.815v13.159l-1.947-1.947c-1.063-1.063-2.918-1.065-3.981,0
		c-0.532,0.532-0.825,1.238-0.825,1.99c0,0.753,0.294,1.459,0.825,1.991l6.157,6.157c0.153,0.153,0.353,0.229,0.554,0.229
		s0.401-0.076,0.554-0.229c0.306-0.306,0.306-0.802,0-1.107l-6.157-6.157c-0.236-0.236-0.366-0.549-0.366-0.883
		c0-0.333,0.13-0.646,0.366-0.883c0.473-0.473,1.294-0.472,1.766,0l3.283,3.282c0.072,0.073,0.159,0.13,0.256,0.17
		c0.191,0.079,0.407,0.079,0.598,0c0.192-0.079,0.345-0.232,0.424-0.424c0.04-0.096,0.06-0.197,0.06-0.299V23.192
		c0-0.688,0.561-1.249,1.249-1.249c0.688,0,1.249,0.561,1.249,1.249v10.496c0,0.433,0.35,0.783,0.783,0.783
		c0.433,0,0.783-0.35,0.783-0.783v-2.431c0-0.688,0.561-1.249,1.249-1.249c0.688,0,1.249,0.561,1.249,1.249v3.352
		c0,0.433,0.35,0.783,0.783,0.783c0.433,0,0.783-0.35,0.783-0.783v-1.798c0-0.688,0.561-1.249,1.249-1.249s1.249,0.561,1.249,1.249
		v2.944c0,0.433,0.35,0.783,0.783,0.783s0.783-0.35,0.783-0.783v-1.848c0-0.688,0.561-1.249,1.249-1.249s1.249,0.561,1.249,1.249
		v8.036c0,0.433,0.35,0.783,0.783,0.783s0.783-0.35,0.783-0.783v-8.036C40.09,32.355,38.827,31.093,37.275,31.093z"/>
</g>
</svg>
