<?xml version="1.0" encoding="utf-8"?>
<!-- Generator: Adobe Illustrator 25.2.3, SVG Export Plug-In . SVG Version: 6.00 Build 0)  -->
<svg version="1.1" id="Layer_1" xmlns="http://www.w3.org/2000/svg" xmlns:xlink="http://www.w3.org/1999/xlink" x="0px" y="0px"
	 viewBox="0 0 50 50" style="enable-background:new 0 0 50 50;" xml:space="preserve">
<style type="text/css">
	.st0{fill-rule:evenodd;clip-rule:evenodd;}
</style>
<g>
	<path class="st0" d="M25,0.1c-6.8,0-7.6,0-10.3,0.1c-2.6,0.1-4.5,0.5-6,1.2C7,2,5.5,3,4.3,4.3C3,5.5,2,7,1.4,8.7
		c-0.6,1.6-1,3.4-1.2,6C0.1,17.4,0.1,18.2,0.1,25s0,7.6,0.1,10.3c0.1,2.6,0.5,4.5,1.2,6C2,43,3,44.5,4.3,45.7
		c1.4,1.4,2.8,2.2,4.4,2.9c1.6,0.6,3.4,1,6,1.2c2.7,0.1,3.5,0.1,10.3,0.1s7.6,0,10.3-0.1c2.6-0.1,4.5-0.5,6-1.2
		c1.7-0.6,3.2-1.6,4.4-2.9c1.4-1.4,2.2-2.8,2.9-4.4c0.6-1.6,1-3.4,1.2-6c0.1-2.7,0.1-3.5,0.1-10.3s0-7.6-0.1-10.3
		c-0.1-2.6-0.5-4.5-1.2-6C48,7,47,5.5,45.7,4.3C44.5,3,43,2,41.3,1.4c-1.6-0.6-3.4-1-6-1.2C32.6,0.1,31.8,0.1,25,0.1z M25,4.6
		c6.6,0,7.4,0,10.1,0.1c2.4,0.1,3.7,0.5,4.6,0.9c1.2,0.5,2,1,2.9,1.9c0.9,0.9,1.4,1.7,1.9,2.9c0.3,0.9,0.7,2.2,0.9,4.6
		c0.1,2.6,0.1,3.4,0.1,10.1s0,7.4-0.1,10.1c-0.1,2.4-0.5,3.7-0.9,4.6c-0.4,1.1-1,2.1-1.9,2.9c-0.9,0.9-1.7,1.4-2.9,1.9
		c-0.9,0.3-2.2,0.7-4.6,0.9c-2.6,0.1-3.4,0.1-10.1,0.1s-7.4,0-10.1-0.1c-2.4-0.1-3.7-0.5-4.6-0.9c-1.1-0.4-2.1-1-2.9-1.9
		c-0.8-0.8-1.5-1.8-1.9-2.9c-0.3-0.9-0.7-2.2-0.9-4.6C4.6,32.4,4.6,31.6,4.6,25s0-7.4,0.1-10.1c0.1-2.4,0.5-3.7,0.9-4.6
		c0.5-1.2,1-2,1.9-2.9C8.3,6.6,9.2,6,10.3,5.6c0.9-0.3,2.2-0.7,4.6-0.9C17.6,4.6,18.4,4.6,25,4.6z"/>
	<path class="st0" d="M25,33.3c-4.6,0-8.3-3.7-8.3-8.3c0-4.6,3.7-8.3,8.3-8.3c0,0,0,0,0,0c4.6,0,8.3,3.7,8.3,8.3
		C33.3,29.6,29.6,33.3,25,33.3z M25,12.2c-7.1,0-12.8,5.7-12.8,12.8c0,7.1,5.7,12.8,12.8,12.8c0,0,0,0,0,0c7.1,0,12.8-5.7,12.8-12.8
		C37.8,17.9,32.1,12.2,25,12.2z M41.5,12c0,1.7-1.4,3-3,3c-1.7,0-3-1.4-3-3s1.4-3,3-3C40.2,8.9,41.5,10.3,41.5,12"/>
</g>
</svg>
