<svg width="104" height="104" viewBox="0 0 104 104" fill="none" xmlns="http://www.w3.org/2000/svg">
<path d="M7.96668 77.4226L52 102.845L96.0333 77.4226V26.5774L52 1.1547L7.96668 26.5774V77.4226Z" stroke="white" stroke-width="2"/>
<g clip-path="url(#clip0_594_187)">
<path d="M51.2385 65.1048C50.898 65.295 50.5951 65.4617 50.2993 65.633C48.395 66.734 47.4698 66.673 45.6689 65.2504C45.3566 65.5884 45.0443 65.9547 44.7038 66.2951C43.3795 67.6073 41.609 67.6637 40.2424 66.3983C39.3032 65.5321 38.4156 64.6283 37.5469 63.701C36.354 62.4287 36.4104 60.6492 37.6572 59.3182C37.9906 58.9614 38.3616 58.6445 38.7514 58.2782C36.7814 56.4002 37.6643 54.6044 38.9322 52.7686L35.2457 52.1089C34.8231 52.0338 34.4004 51.961 33.9778 51.8742C33.2475 51.7263 32.8202 51.076 33.1043 50.3882C33.7218 48.8881 34.3417 47.3834 35.079 45.942C35.6637 44.7987 36.7227 44.1743 37.993 43.9935C40.2378 43.6805 42.4864 43.3879 44.739 43.1155C44.9283 43.0979 45.1112 43.0377 45.2739 42.9393C45.4365 42.8409 45.5748 42.7069 45.6783 42.5475C48.1233 39.222 50.8662 36.1261 53.8731 33.2982C56.9115 30.4577 60.4101 28.6219 64.5333 28.0562C67.4755 27.6547 70.4247 27.2979 73.3785 27.0185C75.7971 26.7838 77.1519 28.1923 76.9828 30.6173C76.7246 34.3029 76.323 37.9651 75.4895 41.5803C74.7569 44.7518 73.1132 47.3763 70.9952 49.7591C68.1494 52.9587 64.9184 55.7335 61.4808 58.2735C61.31 58.3789 61.1658 58.5222 61.0595 58.6924C60.9532 58.8627 60.8877 59.0551 60.868 59.2548C60.6081 61.4865 60.3185 63.7151 59.9992 65.9406C59.9176 66.6548 59.6445 67.3336 59.2089 67.9055C58.7733 68.4774 58.1913 68.921 57.5243 69.1895C56.308 69.7295 55.0894 70.26 53.8684 70.7812C52.8892 71.1967 52.274 70.8657 52.0838 69.8281C51.802 68.2834 51.532 66.7317 51.2385 65.1048ZM74.778 30.3966C74.8179 29.4576 74.5432 29.129 73.6321 29.2229C70.4881 29.5891 67.3416 29.9459 64.2116 30.3966C62.413 30.6596 60.6496 31.1596 59.0811 32.1385C56.1296 33.979 53.6641 36.3782 51.3888 38.9745C47.0425 43.9372 43.4264 49.4163 40.118 55.102C39.6789 55.8556 39.6953 56.0035 40.3176 56.6256C42.6657 58.9731 45.0192 61.3206 47.3783 63.6682C47.97 64.2597 48.1578 64.2949 48.8552 63.8677C50.9074 62.6118 52.9808 61.3887 54.9931 60.0741C60.2528 56.6491 65.2495 52.8977 69.4291 48.1627C71.2911 46.0499 72.7516 43.74 73.3785 40.9394C74.1487 37.4791 74.5033 33.9461 74.778 30.3966ZM54.0656 68.3069C55.0964 67.8233 56.0896 67.4172 57.0148 66.8984C57.3435 66.7106 57.5642 66.2551 57.7192 65.8748C57.8344 65.5224 57.9015 65.156 57.9188 64.7856C58.0996 63.3958 58.2734 62.0038 58.4542 60.5859C58.3796 60.5887 58.306 60.603 58.2358 60.6281C56.6626 61.6493 55.087 62.6681 53.5232 63.7057C53.4581 63.7536 53.4048 63.8157 53.3673 63.8873C53.3299 63.9589 53.3093 64.0381 53.3072 64.1189C53.5443 65.4711 53.7979 66.8303 54.0656 68.3069ZM43.4452 45.5851C43.376 45.5688 43.3051 45.5601 43.2339 45.5593C41.6443 45.7565 40.0429 45.9068 38.4673 46.1908C37.9161 46.291 37.422 46.5932 37.0819 47.0383C36.5231 47.9139 36.1638 48.9163 35.6942 49.9281C37.0843 50.1769 38.371 50.3976 39.6484 50.6488C39.7918 50.7 39.9492 50.6953 40.0893 50.6357C40.2294 50.5761 40.3419 50.466 40.4045 50.3272C41.3249 48.874 42.2829 47.4397 43.2104 45.996C43.2903 45.8668 43.3583 45.733 43.4452 45.5804V45.5851ZM44.105 63.7808L40.2166 59.8933C39.9184 60.2032 39.5756 60.5483 39.2469 60.9075C38.8289 61.3629 38.8125 61.8113 39.2469 62.2502C40.0734 63.1016 40.9148 63.942 41.771 64.7715C42.1867 65.1753 42.6398 65.1612 43.0695 64.7715C43.4382 64.4287 43.7951 64.0813 44.105 63.7761V63.7808Z" fill="white"/>
<path d="M30.0343 76.9925C29.2806 76.9925 28.7124 77.009 28.1559 76.9925C27.4773 76.9691 27.0264 76.5676 27.0171 75.8986C26.9748 73.2529 27.172 70.6307 28.0314 68.1001C28.9378 65.4286 31.5535 64.1093 34.1364 64.3441C36.8837 64.5953 39.1543 66.6658 39.5722 69.302C39.9667 71.7834 39.267 73.8844 37.1631 75.354C36.0055 76.1639 34.6107 76.415 33.2395 76.6263C32.1077 76.7977 30.9783 76.8869 30.0343 76.9925ZM29.2313 74.7624C31.1755 74.6262 33.0281 74.4807 34.8549 73.9877C37.5294 73.2647 38.255 69.7622 36.4235 67.8208C34.4746 65.7643 31.0393 66.2737 30.1353 68.8114C29.4614 70.7035 29.3205 72.6919 29.2266 74.7624H29.2313Z" fill="white"/>
<path d="M68.5376 41.2046C68.5381 42.3399 68.2018 43.45 67.5714 44.3943C66.941 45.3387 66.0448 46.0751 64.9959 46.5103C63.947 46.9455 62.7926 47.0601 61.6786 46.8396C60.5646 46.619 59.541 46.0733 58.7371 45.2713C57.9333 44.4693 57.3853 43.447 57.1625 42.3337C56.9396 41.2204 57.0519 40.0661 57.4851 39.0166C57.9183 37.967 58.6529 37.0695 59.5962 36.4373C60.5396 35.8051 61.6492 35.4667 62.7848 35.4648C64.3074 35.4685 65.7667 36.0741 66.8444 37.1493C67.9221 38.2246 68.5308 39.6824 68.5376 41.2046ZM62.8059 44.7071C63.738 44.7003 64.6299 44.3271 65.289 43.6682C65.948 43.0093 66.3213 42.1176 66.328 41.1858C66.3077 40.2582 65.9301 39.3744 65.2739 38.7184C64.6178 38.0624 63.7337 37.6848 62.8059 37.6645C61.8784 37.6785 60.9931 38.0548 60.3393 38.7128C59.6856 39.3708 59.3152 40.2583 59.3073 41.1858C59.3073 42.1156 59.6751 43.0077 60.3306 43.6674C60.986 44.3271 61.8759 44.7009 62.8059 44.7071Z" fill="white"/>
</g>
<defs>
<clipPath id="clip0_594_187">
<rect width="50" height="50" fill="white" transform="translate(27 27)"/>
</clipPath>
</defs>
</svg>
