<svg width="104" height="104" viewBox="0 0 104 104" fill="none" xmlns="http://www.w3.org/2000/svg">
<path d="M7.96668 77.4226L52 102.845L96.0333 77.4226V26.5774L52 1.1547L7.96668 26.5774V77.4226Z" stroke="white" stroke-width="2"/>
<g clip-path="url(#clip0_594_174)">
<path d="M51.5841 39.7107C55.6915 39.7107 59.799 39.6818 63.9064 39.746C64.5674 39.7721 65.1957 40.0392 65.6718 40.4965C69.2155 44.3643 72.7012 48.2867 76.1933 52.2027C77.2693 53.4054 77.2661 53.787 76.174 54.9159C68.3134 63.0643 60.4475 71.2106 52.5763 79.3547C51.6936 80.2719 51.1749 80.2399 50.1601 79.1879C42.9396 71.7195 35.7223 64.2467 28.5082 56.7697C27.8317 56.0705 27.1552 55.3746 26.4851 54.6722C25.8151 53.9698 25.8408 53.3123 26.4851 52.5907C30.0374 48.6331 33.5811 44.6647 37.1162 40.6857C37.3867 40.3549 37.7321 40.0927 38.1241 39.9204C38.5161 39.7482 38.9435 39.6708 39.3712 39.6947C43.44 39.7107 47.512 39.7107 51.5841 39.7107ZM44.967 42.2412C43.2145 42.2412 41.6682 42.193 40.1347 42.2668C39.6212 42.3021 39.137 42.5181 38.7688 42.8762C36.1078 45.7626 33.4984 48.6716 30.8793 51.5837C30.718 51.7882 30.5696 52.0024 30.4347 52.2251H59.2996C59.3199 52.1062 59.3199 51.9848 59.2996 51.8659C58.0787 48.8415 56.8674 45.8172 55.5916 42.8152C55.4803 42.6557 55.3339 42.5235 55.1637 42.4285C54.9935 42.3335 54.8039 42.2782 54.6091 42.2668C52.5569 42.2155 50.5016 42.2668 48.4495 42.2283C48.2028 42.1966 47.953 42.2561 47.7475 42.3956C47.542 42.5352 47.3952 42.745 47.3349 42.9852C46.8001 44.39 46.2009 45.7755 45.6049 47.1546C45.2827 47.8698 44.9155 48.5721 43.9361 48.2354C43.163 47.9692 42.9697 47.2412 43.3498 46.2469C43.8363 44.9737 44.3582 43.7229 44.967 42.2283V42.2412ZM51.5937 75.2752C54.3224 68.3444 56.9543 61.6639 59.6057 54.9224H43.4594C46.1719 61.6799 48.8361 68.354 51.5937 75.2527V75.2752ZM47.6473 72.8313C47.6461 72.6408 47.6277 72.4508 47.5926 72.2636C45.3633 66.651 43.1372 61.0128 40.8821 55.4259C40.7662 55.1372 40.1992 54.8678 39.8384 54.8614C37.0324 54.8165 34.2232 54.8358 31.4173 54.839C31.1145 54.839 30.8149 54.8743 30.3252 54.9063C36.1239 60.9038 41.8003 66.7793 47.6473 72.8313ZM55.379 72.5362L55.6013 72.6613L72.8333 54.8197C69.3218 54.8197 66.1228 54.8005 62.9238 54.855C62.65 54.855 62.257 55.2944 62.1281 55.6119C60.3788 59.916 58.6682 64.2489 56.9511 68.5753L55.379 72.5362ZM72.8075 52.2572C69.8115 48.8961 67.0248 45.7626 64.2221 42.6356C64.04 42.4228 63.7853 42.2846 63.5069 42.2476C61.8253 42.2123 60.1437 42.2283 58.4846 42.2283C58.4491 42.4047 58.404 42.4849 58.4234 42.549C59.654 45.6376 60.8814 48.7261 62.1378 51.8018C62.1986 51.9173 62.2855 52.0171 62.3918 52.0933C62.498 52.1696 62.6206 52.2202 62.7499 52.2412C66.0101 52.2668 69.267 52.2572 72.8043 52.2572H72.8075Z" fill="white"/>
<path d="M65.77 35.1026C64.6006 35.1026 63.8918 34.0411 64.4814 33.2329C65.77 31.4721 67.1456 29.7595 68.6017 28.1334C68.853 27.8512 69.8613 27.8672 70.2125 28.1334C70.5636 28.3996 70.7247 29.3682 70.496 29.6857C69.2396 31.4272 67.8479 33.0725 66.4723 34.7242C66.2672 34.8976 66.028 35.0265 65.77 35.1026Z" fill="white"/>
<path d="M33.646 27.623C34.0406 27.8439 34.4072 28.1109 34.7381 28.4184C35.9558 29.8777 37.1349 31.369 38.3237 32.854C38.8681 33.5339 38.9937 34.2523 38.2238 34.82C37.5279 35.3331 36.8675 35.1086 36.3424 34.4576C35.1247 32.9534 33.8683 31.4781 32.715 29.9226C32.5876 29.7052 32.5067 29.4639 32.4773 29.2139C32.4479 28.9639 32.4707 28.7106 32.5442 28.4697C32.657 28.1298 33.2111 27.9341 33.646 27.623Z" fill="white"/>
<path d="M52.8387 29.1595C52.8387 30.0223 52.8581 30.8818 52.8387 31.7253C52.8097 32.6393 52.2299 33.3032 51.4954 33.2134C50.6578 33.1108 50.2422 32.572 50.2422 31.7349C50.2422 29.9774 50.2422 28.223 50.2422 26.4655C50.2422 25.5483 50.8317 24.91 51.5856 24.9902C52.4328 25.0768 52.8387 25.6124 52.8387 26.4559V29.1595Z" fill="white"/>
</g>
<defs>
<clipPath id="clip0_594_174">
<rect width="51" height="55" fill="white" transform="translate(26 25)"/>
</clipPath>
</defs>
</svg>
